<?xml version="1.0" encoding="UTF-8"?><svg id="uuid-77fe2113-f94a-4050-9d96-3c8a5d409638" xmlns="http://www.w3.org/2000/svg" width="31" height="31.06" viewBox="0 0 31 31.06"><polygon id="uuid-87d52cd8-42bd-4551-b0e7-ab9fe61d14f6" points="31 0 31 31.06 0 31.06 0 0 31 0" style="fill:#369; fill-rule:evenodd; stroke-width:0px;"/><path id="uuid-ce177604-0115-472a-a588-577caa9a5273" d="m17.73,11.77h3.04l.24.33c-.34.47-1.02,1.02-1.51,1.27-.23-.63-1.37-.54-1.89-.54l-.86,7.39c-.35,2.99-1.7,6.43-4.39,8.06l-.31-.75c1.95-1.07,2.63-4.67,2.86-6.67l.93-8.04h-1.74l-.18-.37,1.2-.7h.83c.16-1.29.44-2.28.88-3.49,1.52-4.13,8.73-6.02,7.89.32-.52,3.91-1.38,7.83-1.7,11.76-.03.35-.17,1.27.39,1.27.52,0,1.02-.22,1.5-.4l.17.45c-.81.59-1.71,1.02-2.57,1.3-1.6.51-1.43-1.44-1.31-2.38.55-4.29,1.31-8.55,1.84-12.84.3-2.45-4.16-2.92-4.92,1.14-.18.96-.31,1.92-.43,2.88Zm-8.4,1.07c1.92,0,2.74,1.79,2.54,4.46-.16,2.13-1.21,4.42-2.95,4.42s-2.8-2.09-2.6-4.5c.2-2.42,1.23-4.38,3.01-4.38Zm.9-1.39c-2.34,0-5.18,2.61-5.56,5.81-.37,3.15.77,5.81,3.32,5.81s5.09-3.04,5.51-5.81c.55-3.58-.72-5.81-3.27-5.81Z" style="fill:#fff; stroke-width:0px;"/></svg>