<?xml version="1.0" encoding="UTF-8"?><svg id="uuid-243d8219-d6ec-4625-9f56-2e9ad8649bb7" xmlns="http://www.w3.org/2000/svg" width="1200" height="630" viewBox="0 0 1200 630"><path d="m367.01,323.43c-5.43,2.62-11.95,2.09-15.78-2.95l-55.72-73.24c-2.11-2.78-2.39-7.06-.21-9.68l28.36-34.15c1.19-1.44,2.85-2.01,4.54-2.81l60.54-28.82c5.39-2.56,11.54-1.33,15.81,2.66l39.53,53.44c1.01,2.1,1.93,3.86,3.21,5.75l20.99,30.93c2.02,2.97,2.28,8.91-1.53,10.74l-99.74,48.11h0Zm11.06-52.79l60.77-28.94c4.2-2,8.1-8.53,4.97-12.79l-39.67-54.03c-4.32-3.88-10.17-4.94-15.47-2.41l-62.76,30.04c-4.98,2.38-5.49,9.76-2.44,13.84l36.77,49.3c4.23,5.68,11.18,8.15,17.83,4.98h0Zm-20.55,53.1c2.47,1.1,5.33.94,7.98-.33l100.74-48.5c3.29-1.58,3.55-6.93,1.71-9.63l-22.44-33.12c-.49,4.91-2.78,8.39-6.96,10.38l-59.29,28.24c-3.62,1.73-6.97,2.19-11.08,1.56-2.35-1.22-5.08-2.04-6.84-4.39l-37.76-50.37c-2.3-3.07-3-6.01-2.39-10.18l-25.49,30.66c-1.88,2.27-1.65,6.23.2,8.66l55.88,73.45c1.46,1.91,3.52,2.99,5.74,3.55h0Z" style="fill:#676565; stroke-width:0px;"/><path d="m378.08,270.64c-6.65,3.17-13.6.7-17.83-4.98l-36.77-49.3c-3.05-4.09-2.54-11.46,2.44-13.84l62.76-30.04c5.3-2.53,11.15-1.47,15.47,2.41l39.67,54.03c3.13,4.26-.77,10.79-4.97,12.79l-60.77,28.94h0Z" style="fill:#e1dfd2; stroke-width:0px;"/><path d="m357.52,323.73c.74-1.81,1.21-3.6,1.75-5.69l10.52-40.78c.5-1.93-1.22-3.35-1.6-4.92,4.11.63,7.46.16,11.08-1.56l59.29-28.24c4.18-1.99,6.48-5.47,6.96-10.38l22.44,33.12c1.83,2.7,1.58,8.04-1.71,9.63l-100.74,48.5c-2.65,1.27-5.51,1.43-7.98.33h0Z" style="fill:#bebbac; stroke-width:0px;"/><path d="m368.19,272.34c.38,1.56,2.1,2.99,1.6,4.92l-10.52,40.78c-.54,2.09-1.02,3.88-1.75,5.69-2.22-.56-4.28-1.64-5.74-3.55l-55.88-73.45c-1.85-2.43-2.09-6.4-.2-8.66l25.49-30.66c-.62,4.17.09,7.11,2.39,10.18l37.76,50.37c1.76,2.35,4.49,3.17,6.84,4.39h0Z" style="fill:#dddac8; stroke-width:0px;"/><polygon points="376.39 243.24 379 247.37 369.3 251.72 343.46 213.84 353.75 209.51 356.13 213.23 350.69 215.51 371.66 245.36 376.39 243.24" style="fill:#4d4b54; stroke-width:0px;"/><polygon points="408.94 228.45 414.33 225.93 393.98 196.61 388.88 198.92 386.67 195.61 396.49 190.9 421.75 227.01 411.52 231.89 408.94 228.45" style="fill:#4d4b54; stroke-width:0px;"/><path d="m379.99,214.02c3.4,6.01,6.62,11.87,9.51,18.13,2.79,6.05,6.18,14.67,1.64,20.51-2.11,2.71-5.24,4.04-8.39,3.44-1.29-.24-2.18-1.05-2.23-2.23-.05-1.05.6-2.16,1.85-2.49,1.02-.26,2.33-.11,3.35.24,1.94.66,3.67-.27,4.2-2.32.43-1.65.1-3.56-.59-5.25-1.79-4.41-4.04-8.4-6.39-12.56l-8.2-14.48c-.09-.17-2.39-4.29-2.39-4.29-1.08-2.34-6.08-9.6-2.09-16.85,1.97-3.58,5.98-5.69,9.91-4.73,1.18.29,2.19,1.16,2.36,2.12.21,1.21-.42,2.42-1.62,2.94-3.01,1.31-4.58-1.75-6.64-.78-2.68,1.26-1.47,5.07-.39,7.15l3.94,7.58c.86,1.66.74,1.35,2.18,3.88h0Z" style="fill:#bf4e6a; stroke-width:0px;"/><polygon points="370.19 221.31 368.15 218.28 387.06 209.53 388.94 212.34 370.19 221.31" style="fill:#bf4e6a; stroke-width:0px;"/><path d="m534.62,236.72v54.41h-10.51v-54.41h-11.97v-9.06h12.03v-7.87c0-14.41,9.19-23.07,23.73-23.07,5.69,0,9.32,1.59,10.44,2.05l-1.26,8.53c-1.79-.79-5.09-1.59-8.73-1.59-8.07,0-13.88,3.97-13.88,14.81v7.14h19.7v9.06h-19.57Z" style="fill:#bf4e6a; stroke-width:0px;"/><path d="m594.91,226.34c19.3,0,33.72,14.48,33.72,33.05s-14.41,33.05-33.72,33.05-33.72-14.48-33.72-33.05,14.41-33.05,33.72-33.05Zm0,56.33c13.35,0,23.2-10.18,23.2-23.27s-9.85-23.27-23.2-23.27-23.2,10.18-23.2,23.27,9.85,23.27,23.2,23.27Z" style="fill:#bf4e6a; stroke-width:0px;"/><path d="m704.19,252.52v38.61h-10.44v-36.03c0-12.36-6.48-18.84-17.98-18.84-10.84,0-19.64,7.47-19.64,19.04v35.83h-10.51v-63.46h10.58v9.52c3.57-5.88,11.11-10.84,21.22-10.84,16.72,0,26.77,9.85,26.77,26.18h0Z" style="fill:#bf4e6a; stroke-width:0px;"/><path d="m738.83,236.72v34.31c0,8.33,4.49,11.97,10.97,11.97,3.44,0,7.8-.66,10.84-1.79l1.39,9.06c-2.71,1.19-8.2,2.18-13.35,2.18-12.23,0-20.36-6.74-20.36-19.7v-36.03h-11.7v-9.06h11.77v-20.36h10.38v20.36h20.29v9.06h-20.23,0Z" style="fill:#bf4e6a; stroke-width:0px;"/><path d="m773.8,206.38c0-3.84,2.64-6.48,6.48-6.48s6.61,2.64,6.61,6.48-2.78,6.54-6.61,6.54-6.48-2.71-6.48-6.54Zm1.26,21.29h10.51v63.46h-10.51v-63.46Z" style="fill:#4d4b54; stroke-width:0px;"/><path d="m833.03,255.36c12.62,2.51,19.3,8.2,19.3,18.11,0,12.36-9.85,18.97-25.25,18.97-8.99,0-17.85-1.79-23.8-4.76l1.46-9.39c5.82,2.97,13.95,4.76,21.62,4.76,10.18,0,15.67-3.17,15.67-9.06s-4.89-8.07-13.82-9.79l-8.26-1.65c-10.51-2.05-17.25-7.6-17.25-17.39,0-11.3,9.98-18.84,25.78-18.84,7.67,0,15.4,1.46,20.36,3.51l-1.32,9.19c-5.16-2.05-12.16-3.37-18.38-3.37-10.31,0-16,3.44-16,9.26,0,5.49,4.36,7.4,13.29,9.12l6.61,1.32h0Z" style="fill:#4d4b54; stroke-width:0px;"/><path d="m883.01,236.72v34.31c0,8.33,4.49,11.97,10.97,11.97,3.44,0,7.8-.66,10.84-1.79l1.39,9.06c-2.71,1.19-8.2,2.18-13.35,2.18-12.23,0-20.36-6.74-20.36-19.7v-36.03h-11.7v-9.06h11.77v-20.36h10.38v20.36h20.29v9.06h-20.23,0Z" style="fill:#4d4b54; stroke-width:0px;"/><path d="m232.1,427.37v-22.89h2.75v22.89h-2.75Z" style="fill:#676565; stroke-width:0px;"/><path d="m239.59,427.37v-16.48h2.49l.13,2.88c.52-1.02,1.27-1.83,2.24-2.4.97-.58,2.08-.87,3.32-.87s2.4.26,3.34.77c.94.51,1.67,1.29,2.19,2.32.52,1.04.78,2.35.78,3.94v9.84h-2.75v-9.55c0-1.66-.37-2.9-1.1-3.73-.73-.83-1.76-1.24-3.09-1.24-.92,0-1.73.22-2.45.67-.72.45-1.29,1.09-1.72,1.93-.42.84-.64,1.88-.64,3.12v8.8h-2.75Z" style="fill:#676565; stroke-width:0px;"/><path d="m264.57,427.76c-1.37,0-2.57-.23-3.58-.69-1.01-.46-1.82-1.1-2.42-1.91-.6-.82-.96-1.78-1.1-2.89h2.81c.11.57.34,1.09.69,1.57.35.48.82.87,1.42,1.16.6.29,1.33.44,2.21.44.76,0,1.4-.11,1.9-.34.5-.23.88-.54,1.13-.93.25-.39.38-.82.38-1.28,0-.68-.16-1.19-.47-1.54-.32-.35-.78-.63-1.39-.83-.61-.21-1.35-.39-2.22-.54-.72-.13-1.43-.31-2.13-.52-.7-.22-1.32-.51-1.86-.87-.54-.36-.98-.8-1.29-1.32-.32-.52-.47-1.17-.47-1.93,0-.94.24-1.77.72-2.5.48-.73,1.17-1.3,2.08-1.72.9-.41,1.96-.62,3.16-.62,1.77,0,3.19.42,4.28,1.28,1.09.85,1.73,2.08,1.93,3.69h-2.71c-.11-.83-.46-1.48-1.06-1.95-.6-.47-1.42-.7-2.47-.7s-1.8.21-2.34.62c-.53.41-.8.96-.8,1.63,0,.44.15.82.44,1.16.29.34.73.63,1.31.87s1.29.44,2.14.59c1.09.2,2.08.46,2.98.78.89.33,1.62.81,2.17,1.46.56.64.83,1.55.83,2.73,0,1.02-.26,1.92-.77,2.68-.51.76-1.24,1.36-2.17,1.78-.94.42-2.04.64-3.3.64Z" style="fill:#676565; stroke-width:0px;"/><path d="m280.53,427.37c-.98,0-1.83-.15-2.55-.46-.72-.3-1.27-.82-1.65-1.55-.38-.73-.57-1.72-.57-2.96v-9.19h-2.88v-2.32h2.88l.36-3.99h2.39v3.99h4.77v2.32h-4.77v9.19c0,1.02.21,1.72.62,2.08.41.36,1.14.54,2.19.54h1.77v2.35h-2.55Z" style="fill:#676565; stroke-width:0px;"/><path d="m292.23,427.76c-1.33,0-2.44-.23-3.34-.7-.89-.47-1.56-1.09-1.99-1.86-.44-.77-.65-1.62-.65-2.53,0-1.11.29-2.05.87-2.83s1.4-1.36,2.45-1.77c1.06-.4,2.31-.6,3.74-.6h4.35c0-1.02-.16-1.88-.47-2.57-.32-.69-.77-1.2-1.37-1.55-.6-.35-1.35-.52-2.24-.52-1.05,0-1.95.26-2.71.78-.76.52-1.23,1.3-1.41,2.32h-2.81c.13-1.18.53-2.16,1.19-2.96.67-.8,1.51-1.41,2.53-1.83,1.02-.43,2.09-.64,3.2-.64,1.53,0,2.8.28,3.81.83,1.01.56,1.77,1.33,2.27,2.32.5.99.75,2.16.75,3.52v10.2h-2.45l-.16-2.91c-.22.46-.5.89-.83,1.29-.34.4-.74.75-1.19,1.05-.46.29-.98.53-1.55.7s-1.24.26-1.98.26Zm.42-2.32c.76,0,1.46-.16,2.08-.47s1.15-.75,1.59-1.31c.44-.56.77-1.17,1-1.85.23-.68.34-1.38.34-2.13v-.1h-4.12c-1.07,0-1.93.13-2.58.38-.65.25-1.12.6-1.41,1.05-.28.45-.42.95-.42,1.52s.14,1.1.41,1.54c.27.44.68.77,1.21,1.01.53.24,1.17.36,1.91.36Z" style="fill:#676565; stroke-width:0px;"/><path d="m304.66,427.37v-23.54h2.75v23.54h-2.75Z" style="fill:#676565; stroke-width:0px;"/><path d="m311.95,427.37v-23.54h2.75v23.54h-2.75Z" style="fill:#676565; stroke-width:0px;"/><path d="m317.08,431.39l1.9-7.23h2.84l-2.84,7.23h-1.9Z" style="fill:#676565; stroke-width:0px;"/><path d="m333.89,427.37v-16.48h2.49l.16,2.35c.52-.85,1.23-1.52,2.11-2.01.88-.49,1.85-.74,2.89-.74.85,0,1.62.11,2.31.34s1.29.58,1.81,1.05c.52.47.95,1.06,1.28,1.78.57-1,1.35-1.78,2.34-2.34.99-.56,2.05-.83,3.19-.83,1.26,0,2.37.26,3.32.77s1.68,1.29,2.19,2.32c.51,1.04.77,2.35.77,3.94v9.84h-2.71v-9.55c0-1.66-.34-2.9-1.01-3.73-.68-.83-1.62-1.24-2.84-1.24-.85,0-1.61.22-2.29.67-.68.45-1.21,1.1-1.6,1.95-.39.85-.59,1.9-.59,3.14v8.76h-2.75v-9.55c0-1.66-.34-2.9-1.01-3.73-.68-.83-1.63-1.24-2.88-1.24-.83,0-1.58.22-2.24.67-.67.45-1.19,1.1-1.59,1.95-.39.85-.59,1.9-.59,3.14v8.76h-2.75Z" style="fill:#676565; stroke-width:0px;"/><path d="m368.39,427.76c-1.33,0-2.44-.23-3.34-.7-.89-.47-1.56-1.09-1.99-1.86-.44-.77-.65-1.62-.65-2.53,0-1.11.29-2.05.87-2.83s1.4-1.36,2.45-1.77c1.06-.4,2.31-.6,3.74-.6h4.35c0-1.02-.16-1.88-.47-2.57-.32-.69-.77-1.2-1.37-1.55-.6-.35-1.35-.52-2.24-.52-1.05,0-1.95.26-2.71.78-.76.52-1.23,1.3-1.41,2.32h-2.81c.13-1.18.53-2.16,1.19-2.96.67-.8,1.51-1.41,2.53-1.83,1.02-.43,2.09-.64,3.2-.64,1.53,0,2.8.28,3.81.83,1.01.56,1.77,1.33,2.27,2.32.5.99.75,2.16.75,3.52v10.2h-2.45l-.16-2.91c-.22.46-.5.89-.83,1.29-.34.4-.74.75-1.19,1.05-.46.29-.98.53-1.55.7s-1.24.26-1.98.26Zm.42-2.32c.76,0,1.46-.16,2.08-.47s1.15-.75,1.59-1.31c.44-.56.77-1.17,1-1.85.23-.68.34-1.38.34-2.13v-.1h-4.12c-1.07,0-1.93.13-2.58.38-.65.25-1.12.6-1.41,1.05-.28.45-.42.95-.42,1.52s.14,1.1.41,1.54c.27.44.68.77,1.21,1.01.53.24,1.17.36,1.91.36Z" style="fill:#676565; stroke-width:0px;"/><path d="m380.82,427.37v-16.48h2.49l.13,2.88c.52-1.02,1.27-1.83,2.24-2.4.97-.58,2.08-.87,3.32-.87s2.4.26,3.34.77c.94.51,1.67,1.29,2.19,2.32.52,1.04.78,2.35.78,3.94v9.84h-2.75v-9.55c0-1.66-.37-2.9-1.1-3.73-.73-.83-1.76-1.24-3.09-1.24-.92,0-1.73.22-2.45.67-.72.45-1.29,1.09-1.72,1.93-.42.84-.64,1.88-.64,3.12v8.8h-2.75Z" style="fill:#676565; stroke-width:0px;"/><path d="m404.95,427.76c-1.33,0-2.44-.23-3.34-.7-.89-.47-1.56-1.09-1.99-1.86-.44-.77-.65-1.62-.65-2.53,0-1.11.29-2.05.87-2.83s1.4-1.36,2.45-1.77c1.06-.4,2.31-.6,3.74-.6h4.35c0-1.02-.16-1.88-.47-2.57-.32-.69-.77-1.2-1.37-1.55-.6-.35-1.35-.52-2.24-.52-1.05,0-1.95.26-2.71.78-.76.52-1.23,1.3-1.41,2.32h-2.81c.13-1.18.53-2.16,1.19-2.96.67-.8,1.51-1.41,2.53-1.83,1.02-.43,2.09-.64,3.2-.64,1.53,0,2.8.28,3.81.83,1.01.56,1.77,1.33,2.27,2.32.5.99.75,2.16.75,3.52v10.2h-2.45l-.16-2.91c-.22.46-.5.89-.83,1.29-.34.4-.74.75-1.19,1.05-.46.29-.98.53-1.55.7s-1.24.26-1.98.26Zm.42-2.32c.76,0,1.46-.16,2.08-.47s1.15-.75,1.59-1.31c.44-.56.77-1.17,1-1.85.23-.68.34-1.38.34-2.13v-.1h-4.12c-1.07,0-1.93.13-2.58.38-.65.25-1.12.6-1.41,1.05-.28.45-.42.95-.42,1.52s.14,1.1.41,1.54c.27.44.68.77,1.21,1.01.53.24,1.17.36,1.91.36Z" style="fill:#676565; stroke-width:0px;"/><path d="m423.88,434.95c-1.48,0-2.8-.19-3.94-.57-1.14-.38-2.03-.96-2.67-1.75-.63-.78-.95-1.75-.95-2.91,0-.5.1-1.04.31-1.6.21-.57.57-1.12,1.08-1.67s1.24-1.04,2.17-1.47l1.9,1.11c-1.16.48-1.91,1.03-2.26,1.65-.35.62-.52,1.19-.52,1.72,0,.72.21,1.32.62,1.8.41.48.99.84,1.73,1.08.74.24,1.58.36,2.52.36s1.74-.13,2.42-.39c.68-.26,1.2-.63,1.57-1.11.37-.48.56-1.05.56-1.7,0-.76-.28-1.4-.85-1.91-.57-.51-1.65-.81-3.24-.9-1.29-.09-2.37-.21-3.24-.36-.87-.15-1.59-.33-2.16-.54-.57-.21-1.04-.44-1.42-.7s-.73-.53-1.03-.82v-.75l3.17-3.14,2.39.85-3.27,2.94.42-1.14c.24.17.47.34.69.49.22.15.51.28.88.39.37.11.89.21,1.55.29.66.09,1.54.17,2.63.26,1.5.11,2.71.37,3.61.78.9.41,1.56.97,1.96,1.67.4.7.6,1.53.6,2.49s-.26,1.83-.77,2.67c-.51.84-1.3,1.53-2.37,2.08-1.07.54-2.44.82-4.12.82Zm-.03-12.75c-1.37,0-2.55-.26-3.52-.78-.97-.52-1.71-1.23-2.21-2.11s-.75-1.87-.75-2.96.26-2.07.77-2.94c.51-.87,1.25-1.57,2.21-2.11.96-.53,2.13-.8,3.5-.8s2.54.27,3.5.8c.96.53,1.69,1.24,2.19,2.11.5.87.75,1.85.75,2.94s-.25,2.08-.75,2.96-1.23,1.59-2.19,2.11c-.96.52-2.13.78-3.5.78Zm0-2.26c1.18,0,2.1-.31,2.78-.92s1.01-1.5,1.01-2.68-.34-2.04-1.01-2.65-1.6-.92-2.78-.92-2.09.31-2.8.92c-.71.61-1.06,1.49-1.06,2.65s.35,2.07,1.05,2.68,1.64.92,2.81.92Zm2.68-6.74l-.82-2.32h6.74v2.06l-5.92.26Z" style="fill:#676565; stroke-width:0px;"/><path d="m442.19,427.76c-1.55,0-2.92-.36-4.1-1.08-1.19-.72-2.12-1.73-2.8-3.02-.68-1.3-1.01-2.81-1.01-4.53s.33-3.26,1-4.55c.66-1.29,1.6-2.29,2.81-3.01,1.21-.72,2.6-1.08,4.17-1.08s2.98.36,4.1,1.08c1.12.72,1.98,1.66,2.58,2.83.6,1.17.9,2.45.9,3.84v.69c0,.24-.01.51-.03.82h-13.47v-2.13h10.82c-.06-1.5-.56-2.68-1.49-3.53-.93-.85-2.09-1.27-3.48-1.27-.94,0-1.8.21-2.6.64-.8.42-1.43,1.05-1.91,1.86s-.72,1.84-.72,3.06v.92c0,1.35.25,2.48.74,3.4.49.92,1.13,1.6,1.93,2.06.8.46,1.65.69,2.57.69,1.16,0,2.11-.26,2.86-.77.75-.51,1.29-1.2,1.62-2.08h2.71c-.26.98-.72,1.86-1.37,2.65-.65.78-1.47,1.4-2.44,1.85-.97.45-2.1.67-3.38.67Z" style="fill:#676565; stroke-width:0px;"/><path d="m451.38,431.39l1.9-7.23h2.84l-2.84,7.23h-1.9Z" style="fill:#676565; stroke-width:0px;"/><path d="m473.55,427.76c-1.33,0-2.44-.23-3.34-.7-.89-.47-1.56-1.09-1.99-1.86-.44-.77-.65-1.62-.65-2.53,0-1.11.29-2.05.87-2.83s1.4-1.36,2.45-1.77c1.06-.4,2.31-.6,3.74-.6h4.35c0-1.02-.16-1.88-.47-2.57-.32-.69-.77-1.2-1.37-1.55-.6-.35-1.35-.52-2.24-.52-1.05,0-1.95.26-2.71.78-.76.52-1.23,1.3-1.41,2.32h-2.81c.13-1.18.53-2.16,1.19-2.96.67-.8,1.51-1.41,2.53-1.83,1.02-.43,2.09-.64,3.2-.64,1.53,0,2.8.28,3.81.83,1.01.56,1.77,1.33,2.27,2.32.5.99.75,2.16.75,3.52v10.2h-2.45l-.16-2.91c-.22.46-.5.89-.83,1.29-.34.4-.74.75-1.19,1.05-.46.29-.98.53-1.55.7s-1.24.26-1.98.26Zm.42-2.32c.76,0,1.46-.16,2.08-.47s1.15-.75,1.59-1.31c.44-.56.77-1.17,1-1.85.23-.68.34-1.38.34-2.13v-.1h-4.12c-1.07,0-1.93.13-2.58.38-.65.25-1.12.6-1.41,1.05-.28.45-.42.95-.42,1.52s.14,1.1.41,1.54c.27.44.68.77,1.21,1.01.53.24,1.17.36,1.91.36Z" style="fill:#676565; stroke-width:0px;"/><path d="m485.98,427.37v-16.48h2.49l.13,2.88c.52-1.02,1.27-1.83,2.24-2.4.97-.58,2.08-.87,3.32-.87s2.4.26,3.34.77c.94.51,1.67,1.29,2.19,2.32.52,1.04.78,2.35.78,3.94v9.84h-2.75v-9.55c0-1.66-.37-2.9-1.1-3.73-.73-.83-1.76-1.24-3.09-1.24-.92,0-1.73.22-2.45.67-.72.45-1.29,1.09-1.72,1.93-.42.84-.64,1.88-.64,3.12v8.8h-2.75Z" style="fill:#676565; stroke-width:0px;"/><path d="m512.01,427.76c-1.59,0-2.99-.38-4.19-1.13-1.2-.75-2.13-1.78-2.78-3.09-.65-1.31-.98-2.79-.98-4.45s.33-3.13.98-4.43c.65-1.3,1.59-2.32,2.8-3.06,1.21-.74,2.61-1.11,4.2-1.11,1.35,0,2.53.27,3.55.82,1.01.55,1.79,1.31,2.34,2.29v-9.78h2.75v23.54h-2.49l-.23-2.71c-.35.54-.8,1.05-1.34,1.52-.55.47-1.2.85-1.96,1.14-.76.29-1.65.44-2.65.44Zm.33-2.39c1.09,0,2.05-.26,2.88-.78.83-.52,1.47-1.25,1.93-2.17.46-.93.69-2.02.69-3.29s-.23-2.33-.69-3.27c-.46-.94-1.1-1.67-1.93-2.19-.83-.52-1.79-.78-2.88-.78s-2.02.26-2.85.78c-.83.52-1.47,1.25-1.93,2.19-.46.94-.69,2.03-.69,3.27s.23,2.36.69,3.29c.46.93,1.1,1.65,1.93,2.17.83.52,1.78.78,2.85.78Z" style="fill:#676565; stroke-width:0px;"/><path d="m542.58,427.76c-.94,0-1.78-.14-2.53-.41-.75-.27-1.41-.64-1.98-1.1-.57-.46-1.04-.99-1.41-1.6l-.23,2.71h-2.49v-23.54h2.75v9.78c.52-.85,1.28-1.58,2.26-2.19.98-.61,2.19-.92,3.63-.92,1.59,0,2.99.38,4.19,1.13,1.2.75,2.13,1.78,2.8,3.07.66,1.3,1,2.77,1,4.43s-.33,3.14-1,4.45c-.67,1.31-1.6,2.33-2.8,3.07-1.2.74-2.59,1.11-4.19,1.11Zm-.33-2.39c1.07,0,2.02-.26,2.84-.78.83-.52,1.48-1.25,1.95-2.17.47-.93.7-2.02.7-3.29s-.23-2.33-.7-3.27c-.47-.94-1.12-1.67-1.95-2.19-.83-.52-1.78-.78-2.84-.78s-2.05.26-2.88.78c-.83.52-1.47,1.25-1.93,2.19-.46.94-.69,2.03-.69,3.27s.23,2.36.69,3.29c.46.93,1.1,1.65,1.93,2.17.83.52,1.79.78,2.88.78Z" style="fill:#676565; stroke-width:0px;"/><path d="m560.4,427.76c-1.26,0-2.37-.25-3.32-.75-.95-.5-1.68-1.27-2.19-2.32-.51-1.05-.77-2.35-.77-3.92v-9.88h2.75v9.58c0,1.66.36,2.89,1.08,3.71.72.82,1.74,1.23,3.07,1.23.92,0,1.74-.22,2.47-.67.73-.45,1.31-1.09,1.73-1.93.43-.84.64-1.87.64-3.09v-8.83h2.75v16.48h-2.49l-.16-2.88c-.5,1.02-1.24,1.83-2.22,2.4s-2.09.87-3.34.87Z" style="fill:#676565; stroke-width:0px;"/><path d="m574.79,407.39c-.54,0-1-.18-1.36-.54-.36-.36-.54-.81-.54-1.36s.18-.99.54-1.32c.36-.34.81-.51,1.36-.51s.97.17,1.34.51c.37.34.56.78.56,1.32s-.19,1-.56,1.36c-.37.36-.82.54-1.34.54Zm-1.37,19.98v-16.48h2.75v16.48h-2.75Z" style="fill:#676565; stroke-width:0px;"/><path d="m581,427.37v-23.54h2.75v23.54h-2.75Z" style="fill:#676565; stroke-width:0px;"/><path d="m595.55,427.76c-1.59,0-2.99-.38-4.19-1.13-1.2-.75-2.13-1.78-2.78-3.09-.65-1.31-.98-2.79-.98-4.45s.33-3.13.98-4.43c.65-1.3,1.59-2.32,2.8-3.06,1.21-.74,2.61-1.11,4.2-1.11,1.35,0,2.53.27,3.55.82,1.01.55,1.79,1.31,2.34,2.29v-9.78h2.75v23.54h-2.49l-.23-2.71c-.35.54-.79,1.05-1.34,1.52s-1.2.85-1.96,1.14c-.76.29-1.65.44-2.65.44Zm.33-2.39c1.09,0,2.05-.26,2.88-.78.83-.52,1.47-1.25,1.93-2.17.46-.93.69-2.02.69-3.29s-.23-2.33-.69-3.27c-.46-.94-1.1-1.67-1.93-2.19-.83-.52-1.79-.78-2.88-.78s-2.02.26-2.85.78c-.83.52-1.47,1.25-1.93,2.19-.46.94-.69,2.03-.69,3.27s.23,2.36.69,3.29c.46.93,1.1,1.65,1.93,2.17.83.52,1.78.78,2.85.78Z" style="fill:#676565; stroke-width:0px;"/><path d="m615.86,414.58v-3.7h10.23v3.7h-10.23Zm2.26,12.79v-17.95c0-1.37.23-2.46.69-3.27.46-.81,1.12-1.4,1.98-1.77.86-.37,1.87-.56,3.02-.56h2.03v3.76h-1.34c-.7,0-1.2.14-1.5.41s-.46.74-.46,1.39v17.98h-4.42Z" style="fill:#4d4b54; stroke-width:0px;"/><path d="m636.66,427.76c-1.59,0-3.01-.37-4.27-1.1-1.25-.73-2.25-1.74-2.98-3.04-.73-1.3-1.1-2.78-1.1-4.46s.37-3.23,1.1-4.53c.73-1.3,1.73-2.31,2.99-3.04,1.26-.73,2.69-1.1,4.28-1.1s3.01.37,4.25,1.1c1.24.73,2.23,1.74,2.96,3.02.73,1.29,1.09,2.79,1.09,4.51s-.37,3.2-1.09,4.5c-.73,1.3-1.72,2.31-2.98,3.04-1.25.73-2.68,1.1-4.27,1.1Zm0-3.83c.7,0,1.33-.18,1.91-.54.58-.36,1.05-.9,1.41-1.62.36-.72.54-1.6.54-2.65s-.17-1.96-.52-2.67-.81-1.24-1.37-1.6c-.57-.36-1.2-.54-1.9-.54s-1.37.18-1.96.54c-.59.36-1.06.89-1.41,1.6s-.52,1.6-.52,2.67.17,1.93.51,2.65c.34.72.8,1.26,1.39,1.62.59.36,1.23.54,1.93.54Z" style="fill:#4d4b54; stroke-width:0px;"/><path d="m648.79,427.37v-16.48h3.89l.29,2.71c.52-.96,1.25-1.72,2.17-2.27.93-.56,2.03-.83,3.32-.83,1.37,0,2.53.29,3.47.87.94.58,1.66,1.41,2.16,2.5.5,1.09.75,2.42.75,3.99v9.52h-4.41v-9.12c0-1.29-.28-2.28-.85-2.98-.57-.7-1.43-1.05-2.58-1.05-.72,0-1.37.17-1.95.52-.58.35-1.03.85-1.36,1.49-.33.64-.49,1.43-.49,2.37v8.76h-4.41Z" style="fill:#4d4b54; stroke-width:0px;"/><path d="m676.39,427.37c-1.13,0-2.14-.18-3.01-.54s-1.55-.96-2.03-1.8c-.48-.84-.72-1.99-.72-3.45v-7h-2.84v-3.7h2.84l.49-4.51h3.92v4.51h4.35v3.7h-4.35v7.06c0,.74.16,1.25.49,1.54.33.28.88.43,1.67.43h2.13v3.76h-2.94Z" style="fill:#4d4b54; stroke-width:0px;"/><path d="m689.86,427.76c-1.53,0-2.84-.24-3.94-.72-1.1-.48-1.97-1.14-2.6-1.98-.63-.84-.99-1.8-1.08-2.89h4.41c.09.39.26.76.52,1.11.26.35.61.62,1.05.82.44.2.96.29,1.57.29s1.07-.08,1.46-.25c.38-.16.67-.39.85-.67.18-.28.28-.58.28-.88,0-.46-.14-.81-.41-1.05-.27-.24-.66-.45-1.16-.62-.5-.17-1.11-.33-1.83-.46-.79-.15-1.55-.34-2.31-.57-.75-.23-1.42-.52-2.01-.88-.59-.36-1.06-.81-1.41-1.34s-.52-1.2-.52-2.01c0-.96.26-1.83.79-2.62.52-.78,1.29-1.41,2.3-1.86,1.01-.46,2.21-.69,3.58-.69,2.01,0,3.59.45,4.74,1.34s1.84,2.13,2.06,3.69h-4.15c-.13-.52-.42-.93-.87-1.21-.45-.28-1.04-.42-1.78-.42s-1.36.14-1.78.42c-.42.28-.64.64-.64,1.08,0,.31.14.58.41.82.27.24.66.45,1.16.62.5.17,1.11.34,1.83.49,1.26.26,2.38.56,3.33.9.96.34,1.71.82,2.26,1.44.54.62.82,1.52.82,2.7,0,1.05-.28,1.98-.85,2.8-.57.82-1.37,1.46-2.4,1.91-1.04.46-2.26.69-3.68.69Z" style="fill:#4d4b54; stroke-width:0px;"/><path d="m708.33,434.56v-23.67h2.49l.23,2.68c.35-.52.8-1.02,1.34-1.49s1.19-.85,1.95-1.14c.75-.29,1.63-.44,2.63-.44,1.61,0,3.01.38,4.2,1.13,1.19.75,2.11,1.78,2.78,3.07.67,1.3,1,2.79,1,4.46s-.33,3.13-1,4.43c-.67,1.3-1.6,2.32-2.8,3.06-1.2.74-2.61,1.11-4.22,1.11-1.33,0-2.5-.27-3.51-.82-1.01-.54-1.79-1.31-2.34-2.29v9.91h-2.75Zm8.31-9.19c1.07,0,2.02-.26,2.84-.78.83-.52,1.48-1.25,1.95-2.17.47-.93.7-2.01.7-3.25s-.23-2.37-.7-3.3c-.47-.94-1.12-1.67-1.95-2.19-.83-.52-1.78-.78-2.84-.78s-2.05.26-2.88.78c-.83.52-1.47,1.25-1.93,2.19-.46.94-.69,2.04-.69,3.3s.23,2.33.69,3.25c.46.93,1.1,1.65,1.93,2.17.83.52,1.79.78,2.88.78Z" style="fill:#676565; stroke-width:0px;"/><path d="m728.8,427.37v-16.48h2.49l.2,3.14c.37-.74.84-1.37,1.42-1.9.58-.52,1.28-.93,2.09-1.21.82-.28,1.75-.42,2.8-.42v2.88h-1.01c-.7,0-1.36.09-1.99.28-.63.19-1.19.49-1.68.9-.49.41-.87.98-1.14,1.68-.27.71-.41,1.59-.41,2.63v8.5h-2.75Z" style="fill:#676565; stroke-width:0px;"/><path d="m747.67,427.76c-1.55,0-2.93-.35-4.15-1.06-1.22-.71-2.18-1.71-2.88-3.01-.7-1.3-1.05-2.81-1.05-4.53s.35-3.3,1.06-4.59c.71-1.3,1.68-2.3,2.91-3.01,1.23-.71,2.62-1.06,4.17-1.06s2.93.35,4.14,1.06c1.21.71,2.17,1.71,2.88,2.99.71,1.29,1.06,2.81,1.06,4.58s-.36,3.26-1.08,4.56c-.72,1.3-1.69,2.3-2.91,3.01s-2.61,1.06-4.15,1.06Zm0-2.35c.94,0,1.81-.23,2.62-.7.81-.47,1.46-1.17,1.96-2.11.5-.94.75-2.09.75-3.47s-.25-2.56-.74-3.48c-.49-.93-1.13-1.62-1.93-2.09-.8-.47-1.66-.7-2.6-.7s-1.81.23-2.63.7c-.82.47-1.47,1.17-1.96,2.09-.49.93-.74,2.09-.74,3.48s.25,2.53.74,3.47c.49.94,1.13,1.64,1.93,2.11.8.47,1.66.7,2.6.7Z" style="fill:#676565; stroke-width:0px;"/><path d="m765.49,434.95c-1.48,0-2.8-.19-3.94-.57-1.14-.38-2.03-.96-2.67-1.75-.63-.78-.95-1.75-.95-2.91,0-.5.1-1.04.31-1.6.21-.57.57-1.12,1.08-1.67.51-.54,1.24-1.04,2.17-1.47l1.9,1.11c-1.16.48-1.91,1.03-2.26,1.65-.35.62-.52,1.19-.52,1.72,0,.72.21,1.32.62,1.8s.99.84,1.73,1.08,1.58.36,2.52.36,1.74-.13,2.42-.39c.68-.26,1.2-.63,1.57-1.11.37-.48.56-1.05.56-1.7,0-.76-.28-1.4-.85-1.91-.57-.51-1.65-.81-3.24-.9-1.29-.09-2.37-.21-3.24-.36-.87-.15-1.59-.33-2.16-.54-.57-.21-1.04-.44-1.42-.7-.38-.26-.73-.53-1.03-.82v-.75l3.17-3.14,2.39.85-3.27,2.94.42-1.14c.24.17.47.34.69.49s.51.28.88.39c.37.11.89.21,1.55.29.67.09,1.54.17,2.63.26,1.5.11,2.71.37,3.61.78.91.41,1.56.97,1.96,1.67.4.7.6,1.53.6,2.49s-.26,1.83-.77,2.67c-.51.84-1.3,1.53-2.37,2.08-1.07.54-2.44.82-4.12.82Zm-.03-12.75c-1.37,0-2.55-.26-3.52-.78-.97-.52-1.71-1.23-2.21-2.11-.5-.88-.75-1.87-.75-2.96s.26-2.07.77-2.94c.51-.87,1.25-1.57,2.21-2.11.96-.53,2.13-.8,3.5-.8s2.54.27,3.5.8c.96.53,1.69,1.24,2.19,2.11.5.87.75,1.85.75,2.94s-.25,2.08-.75,2.96-1.23,1.59-2.19,2.11c-.96.52-2.13.78-3.5.78Zm0-2.26c1.18,0,2.1-.31,2.78-.92s1.01-1.5,1.01-2.68-.34-2.04-1.01-2.65-1.6-.92-2.78-.92-2.09.31-2.8.92c-.71.61-1.06,1.49-1.06,2.65s.35,2.07,1.05,2.68,1.63.92,2.81.92Zm2.68-6.74l-.82-2.32h6.74v2.06l-5.92.26Z" style="fill:#676565; stroke-width:0px;"/><path d="m777.23,427.37v-16.48h2.49l.2,3.14c.37-.74.84-1.37,1.42-1.9.58-.52,1.28-.93,2.09-1.21.82-.28,1.75-.42,2.8-.42v2.88h-1.01c-.7,0-1.36.09-1.99.28-.63.19-1.19.49-1.68.9-.49.41-.87.98-1.14,1.68-.27.71-.41,1.59-.41,2.63v8.5h-2.75Z" style="fill:#676565; stroke-width:0px;"/><path d="m794.69,427.76c-1.33,0-2.44-.23-3.33-.7-.89-.47-1.56-1.09-2-1.86-.44-.77-.65-1.62-.65-2.53,0-1.11.29-2.05.87-2.83.58-.77,1.39-1.36,2.45-1.77,1.06-.4,2.31-.6,3.74-.6h4.35c0-1.02-.16-1.88-.47-2.57-.32-.69-.77-1.2-1.37-1.55-.6-.35-1.35-.52-2.24-.52-1.05,0-1.95.26-2.71.78-.76.52-1.23,1.3-1.41,2.32h-2.81c.13-1.18.53-2.16,1.19-2.96.66-.8,1.51-1.41,2.53-1.83,1.02-.43,2.09-.64,3.2-.64,1.53,0,2.8.28,3.81.83,1.01.56,1.77,1.33,2.27,2.32.5.99.75,2.16.75,3.52v10.2h-2.45l-.16-2.91c-.22.46-.5.89-.83,1.29-.34.4-.74.75-1.19,1.05s-.98.53-1.55.7-1.24.26-1.98.26Zm.43-2.32c.76,0,1.46-.16,2.08-.47s1.15-.75,1.59-1.31c.44-.56.77-1.17,1-1.85.23-.68.34-1.38.34-2.13v-.1h-4.12c-1.07,0-1.93.13-2.58.38-.65.25-1.12.6-1.41,1.05-.28.45-.43.95-.43,1.52s.14,1.1.41,1.54c.27.44.68.77,1.21,1.01.53.24,1.17.36,1.91.36Z" style="fill:#676565; stroke-width:0px;"/><path d="m807.12,427.37v-16.48h2.49l.16,2.35c.52-.85,1.23-1.52,2.11-2.01.88-.49,1.85-.74,2.89-.74.85,0,1.62.11,2.31.34s1.29.58,1.81,1.05c.52.47.95,1.06,1.28,1.78.57-1,1.35-1.78,2.34-2.34.99-.56,2.05-.83,3.19-.83,1.26,0,2.37.26,3.32.77s1.68,1.29,2.19,2.32c.51,1.04.77,2.35.77,3.94v9.84h-2.71v-9.55c0-1.66-.34-2.9-1.01-3.73-.68-.83-1.62-1.24-2.84-1.24-.85,0-1.61.22-2.29.67-.68.45-1.21,1.1-1.6,1.95s-.59,1.9-.59,3.14v8.76h-2.75v-9.55c0-1.66-.34-2.9-1.01-3.73-.68-.83-1.63-1.24-2.88-1.24-.83,0-1.58.22-2.24.67-.67.45-1.19,1.1-1.59,1.95-.39.85-.59,1.9-.59,3.14v8.76h-2.75Z" style="fill:#676565; stroke-width:0px;"/><path d="m836.25,427.37v-16.48h2.49l.16,2.35c.52-.85,1.23-1.52,2.11-2.01.88-.49,1.85-.74,2.89-.74.85,0,1.62.11,2.31.34s1.29.58,1.81,1.05c.52.47.95,1.06,1.28,1.78.57-1,1.35-1.78,2.34-2.34.99-.56,2.05-.83,3.19-.83,1.26,0,2.37.26,3.32.77s1.68,1.29,2.19,2.32c.51,1.04.77,2.35.77,3.94v9.84h-2.71v-9.55c0-1.66-.34-2.9-1.01-3.73-.68-.83-1.62-1.24-2.84-1.24-.85,0-1.61.22-2.29.67-.68.45-1.21,1.1-1.6,1.95s-.59,1.9-.59,3.14v8.76h-2.75v-9.55c0-1.66-.34-2.9-1.01-3.73-.68-.83-1.63-1.24-2.88-1.24-.83,0-1.58.22-2.24.67-.67.45-1.19,1.1-1.59,1.95-.39.85-.59,1.9-.59,3.14v8.76h-2.75Z" style="fill:#676565; stroke-width:0px;"/><path d="m870.75,427.76c-1.33,0-2.44-.23-3.33-.7-.89-.47-1.56-1.09-2-1.86-.44-.77-.65-1.62-.65-2.53,0-1.11.29-2.05.87-2.83.58-.77,1.39-1.36,2.45-1.77,1.06-.4,2.31-.6,3.74-.6h4.35c0-1.02-.16-1.88-.47-2.57-.32-.69-.77-1.2-1.37-1.55-.6-.35-1.35-.52-2.24-.52-1.05,0-1.95.26-2.71.78-.76.52-1.23,1.3-1.41,2.32h-2.81c.13-1.18.53-2.16,1.19-2.96.66-.8,1.51-1.41,2.53-1.83,1.02-.43,2.09-.64,3.2-.64,1.53,0,2.8.28,3.81.83,1.01.56,1.77,1.33,2.27,2.32.5.99.75,2.16.75,3.52v10.2h-2.45l-.16-2.91c-.22.46-.5.89-.83,1.29-.34.4-.74.75-1.19,1.05s-.98.53-1.55.7-1.24.26-1.98.26Zm.43-2.32c.76,0,1.46-.16,2.08-.47s1.15-.75,1.59-1.31c.44-.56.77-1.17,1-1.85.23-.68.34-1.38.34-2.13v-.1h-4.12c-1.07,0-1.93.13-2.58.38-.65.25-1.12.6-1.41,1.05-.28.45-.43.95-.43,1.52s.14,1.1.41,1.54c.27.44.68.77,1.21,1.01.53.24,1.17.36,1.91.36Z" style="fill:#676565; stroke-width:0px;"/><path d="m889.19,427.37c-.98,0-1.83-.15-2.55-.46-.72-.3-1.27-.82-1.65-1.55-.38-.73-.57-1.72-.57-2.96v-9.19h-2.88v-2.32h2.88l.36-3.99h2.39v3.99h4.77v2.32h-4.77v9.19c0,1.02.21,1.72.62,2.08.41.36,1.14.54,2.19.54h1.77v2.35h-2.55Z" style="fill:#676565; stroke-width:0px;"/><path d="m897.17,407.39c-.54,0-1-.18-1.36-.54-.36-.36-.54-.81-.54-1.36s.18-.99.54-1.32c.36-.34.81-.51,1.36-.51s.97.17,1.34.51c.37.34.56.78.56,1.32s-.19,1-.56,1.36c-.37.36-.82.54-1.34.54Zm-1.37,19.98v-16.48h2.75v16.48h-2.75Z" style="fill:#676565; stroke-width:0px;"/><path d="m910.81,427.76c-1.55,0-2.94-.36-4.17-1.08-1.23-.72-2.2-1.73-2.89-3.02-.7-1.3-1.05-2.8-1.05-4.5s.35-3.26,1.05-4.56c.7-1.3,1.66-2.31,2.89-3.02,1.23-.72,2.62-1.08,4.17-1.08,1.96,0,3.6.51,4.91,1.52,1.31,1.01,2.14,2.37,2.49,4.07h-2.81c-.22-1.02-.75-1.82-1.6-2.39s-1.85-.85-3.01-.85c-.94,0-1.81.23-2.62.7-.81.47-1.45,1.17-1.93,2.09-.48.93-.72,2.09-.72,3.48,0,1.02.14,1.93.43,2.73.28.8.66,1.46,1.14,1.98.48.52,1.04.92,1.68,1.19.64.27,1.31.41,2.01.41.76,0,1.47-.13,2.11-.39s1.18-.64,1.62-1.13c.44-.49.73-1.07.88-1.75h2.81c-.35,1.66-1.18,3-2.5,4.04-1.32,1.04-2.95,1.55-4.89,1.55Z" style="fill:#676565; stroke-width:0px;"/><path d="m927.45,427.76c-1.33,0-2.44-.23-3.33-.7-.89-.47-1.56-1.09-2-1.86-.44-.77-.65-1.62-.65-2.53,0-1.11.29-2.05.87-2.83.58-.77,1.39-1.36,2.45-1.77,1.06-.4,2.31-.6,3.74-.6h4.35c0-1.02-.16-1.88-.47-2.57-.32-.69-.77-1.2-1.37-1.55-.6-.35-1.35-.52-2.24-.52-1.05,0-1.95.26-2.71.78-.76.52-1.23,1.3-1.41,2.32h-2.81c.13-1.18.53-2.16,1.19-2.96.66-.8,1.51-1.41,2.53-1.83,1.02-.43,2.09-.64,3.2-.64,1.53,0,2.8.28,3.81.83,1.01.56,1.77,1.33,2.27,2.32.5.99.75,2.16.75,3.52v10.2h-2.45l-.16-2.91c-.22.46-.5.89-.83,1.29-.34.4-.74.75-1.19,1.05s-.98.53-1.55.7-1.24.26-1.98.26Zm.43-2.32c.76,0,1.46-.16,2.08-.47s1.15-.75,1.59-1.31c.44-.56.77-1.17,1-1.85.23-.68.34-1.38.34-2.13v-.1h-4.12c-1.07,0-1.93.13-2.58.38-.65.25-1.12.6-1.41,1.05-.28.45-.43.95-.43,1.52s.14,1.1.41,1.54c.27.44.68.77,1.21,1.01.53.24,1.17.36,1.91.36Z" style="fill:#676565; stroke-width:0px;"/><path d="m939.88,427.37v-23.54h2.75v23.54h-2.75Z" style="fill:#676565; stroke-width:0px;"/><path d="m947.17,427.37v-23.54h2.75v23.54h-2.75Z" style="fill:#676565; stroke-width:0px;"/><path d="m956.26,434.56l4.02-9.02h-.95l-6.47-14.65h2.98l5.36,12.59,5.62-12.59h2.84l-10.53,23.67h-2.88Z" style="fill:#676565; stroke-width:0px;"/><path d="m341.61,467c-1.33,0-2.44-.23-3.34-.7-.89-.47-1.56-1.09-1.99-1.86-.44-.77-.65-1.62-.65-2.53,0-1.11.29-2.05.87-2.83s1.4-1.36,2.45-1.77c1.06-.4,2.31-.6,3.74-.6h4.35c0-1.02-.16-1.88-.47-2.57-.32-.69-.77-1.2-1.37-1.55-.6-.35-1.35-.52-2.24-.52-1.05,0-1.95.26-2.71.78-.76.52-1.23,1.3-1.41,2.32h-2.81c.13-1.18.53-2.16,1.19-2.96.67-.8,1.51-1.41,2.53-1.83,1.02-.43,2.09-.64,3.2-.64,1.53,0,2.8.28,3.81.83,1.01.56,1.77,1.33,2.27,2.32.5.99.75,2.16.75,3.52v10.2h-2.45l-.16-2.91c-.22.46-.5.89-.83,1.29-.34.4-.74.75-1.19,1.05-.46.29-.98.53-1.55.7s-1.24.26-1.98.26Zm.42-2.32c.76,0,1.46-.16,2.08-.47s1.15-.75,1.59-1.31c.44-.56.77-1.17,1-1.85.23-.68.34-1.38.34-2.13v-.1h-4.12c-1.07,0-1.93.13-2.58.38-.65.25-1.12.6-1.41,1.05-.28.45-.42.95-.42,1.52s.14,1.1.41,1.54c.27.44.68.77,1.21,1.01.53.24,1.17.36,1.91.36Z" style="fill:#676565; stroke-width:0px;"/><path d="m361.46,467c-1.55,0-2.94-.36-4.17-1.08-1.23-.72-2.2-1.73-2.89-3.02-.7-1.3-1.05-2.8-1.05-4.5s.35-3.26,1.05-4.56c.7-1.3,1.66-2.31,2.89-3.02,1.23-.72,2.62-1.08,4.17-1.08,1.96,0,3.6.51,4.9,1.52,1.31,1.01,2.14,2.37,2.49,4.07h-2.81c-.22-1.02-.75-1.82-1.6-2.39s-1.85-.85-3.01-.85c-.94,0-1.81.23-2.62.7-.81.47-1.45,1.17-1.93,2.09-.48.93-.72,2.09-.72,3.48,0,1.02.14,1.93.42,2.73s.67,1.46,1.14,1.98c.48.52,1.04.92,1.68,1.19s1.31.41,2.01.41c.76,0,1.47-.13,2.11-.39s1.18-.64,1.62-1.13c.44-.49.73-1.07.88-1.75h2.81c-.35,1.66-1.18,3-2.5,4.04-1.32,1.04-2.95,1.55-4.89,1.55Z" style="fill:#676565; stroke-width:0px;"/><path d="m372.74,466.61v-16.48h2.49l.2,3.14c.37-.74.84-1.37,1.42-1.9.58-.52,1.27-.93,2.09-1.21.82-.28,1.75-.42,2.8-.42v2.88h-1.01c-.7,0-1.36.09-1.99.28-.63.19-1.19.49-1.68.9-.49.41-.87.98-1.14,1.68-.27.71-.41,1.59-.41,2.63v8.5h-2.75Z" style="fill:#676565; stroke-width:0px;"/><path d="m391.61,467c-1.55,0-2.93-.35-4.15-1.06-1.22-.71-2.18-1.71-2.88-3.01-.7-1.3-1.05-2.81-1.05-4.53s.35-3.3,1.06-4.59c.71-1.3,1.68-2.3,2.91-3.01,1.23-.71,2.62-1.06,4.17-1.06s2.93.35,4.14,1.06c1.21.71,2.17,1.71,2.88,2.99.71,1.29,1.06,2.81,1.06,4.58s-.36,3.26-1.08,4.56c-.72,1.3-1.69,2.3-2.91,3.01-1.22.71-2.61,1.06-4.15,1.06Zm0-2.35c.94,0,1.81-.23,2.62-.7.81-.47,1.46-1.17,1.96-2.11.5-.94.75-2.09.75-3.47s-.25-2.56-.74-3.48c-.49-.93-1.13-1.62-1.93-2.09-.8-.47-1.66-.7-2.6-.7s-1.81.23-2.63.7c-.82.47-1.47,1.17-1.96,2.09-.49.93-.74,2.09-.74,3.48s.25,2.53.74,3.47c.49.94,1.13,1.64,1.93,2.11.8.47,1.66.7,2.6.7Z" style="fill:#676565; stroke-width:0px;"/><path d="m409.82,467c-1.37,0-2.57-.23-3.58-.69-1.01-.46-1.82-1.1-2.42-1.91-.6-.82-.96-1.78-1.1-2.89h2.81c.11.57.34,1.09.69,1.57.35.48.82.87,1.42,1.16.6.29,1.33.44,2.21.44.76,0,1.4-.11,1.9-.34.5-.23.88-.54,1.13-.93.25-.39.38-.82.38-1.28,0-.68-.16-1.19-.47-1.54-.32-.35-.78-.63-1.39-.83-.61-.21-1.35-.39-2.22-.54-.72-.13-1.43-.31-2.13-.52-.7-.22-1.32-.51-1.86-.87-.54-.36-.98-.8-1.29-1.32-.32-.52-.47-1.17-.47-1.93,0-.94.24-1.77.72-2.5.48-.73,1.17-1.3,2.08-1.72.9-.41,1.96-.62,3.16-.62,1.77,0,3.19.42,4.28,1.28,1.09.85,1.73,2.08,1.93,3.69h-2.71c-.11-.83-.46-1.48-1.06-1.95-.6-.47-1.42-.7-2.47-.7s-1.8.21-2.34.62c-.53.41-.8.96-.8,1.63,0,.44.15.82.44,1.16.29.34.73.63,1.31.87s1.29.44,2.14.59c1.09.2,2.08.46,2.98.78.89.33,1.62.81,2.17,1.46.56.64.83,1.55.83,2.73,0,1.02-.26,1.92-.77,2.68-.51.76-1.24,1.36-2.17,1.78-.94.42-2.04.64-3.3.64Z" style="fill:#676565; stroke-width:0px;"/><path d="m426.24,467c-1.37,0-2.57-.23-3.58-.69-1.01-.46-1.82-1.1-2.42-1.91-.6-.82-.96-1.78-1.1-2.89h2.81c.11.57.34,1.09.69,1.57.35.48.82.87,1.42,1.16.6.29,1.33.44,2.21.44.76,0,1.4-.11,1.9-.34.5-.23.88-.54,1.13-.93.25-.39.38-.82.38-1.28,0-.68-.16-1.19-.47-1.54-.32-.35-.78-.63-1.39-.83-.61-.21-1.35-.39-2.22-.54-.72-.13-1.43-.31-2.13-.52-.7-.22-1.32-.51-1.86-.87-.54-.36-.98-.8-1.29-1.32-.32-.52-.47-1.17-.47-1.93,0-.94.24-1.77.72-2.5.48-.73,1.17-1.3,2.08-1.72.9-.41,1.96-.62,3.16-.62,1.77,0,3.19.42,4.28,1.28,1.09.85,1.73,2.08,1.93,3.69h-2.71c-.11-.83-.46-1.48-1.06-1.95-.6-.47-1.42-.7-2.47-.7s-1.8.21-2.34.62c-.53.41-.8.96-.8,1.63,0,.44.15.82.44,1.16.29.34.73.63,1.31.87s1.29.44,2.14.59c1.09.2,2.08.46,2.98.78.89.33,1.62.81,2.17,1.46.56.64.83,1.55.83,2.73,0,1.02-.26,1.92-.77,2.68-.51.76-1.24,1.36-2.17,1.78-.94.42-2.04.64-3.3.64Z" style="fill:#676565; stroke-width:0px;"/><path d="m450.01,466.61l-6.28-22.89h2.94l4.94,19.62,5.59-19.62h3.07l5.46,19.69,5-19.69h2.94l-6.41,22.89h-3.14l-5.46-18.93-5.59,18.93h-3.07Z" style="fill:#676565; stroke-width:0px;"/><path d="m478.42,446.63c-.54,0-1-.18-1.36-.54-.36-.36-.54-.81-.54-1.36s.18-.99.54-1.32c.36-.34.81-.51,1.36-.51s.97.17,1.34.51c.37.34.56.78.56,1.32s-.19,1-.56,1.36c-.37.36-.82.54-1.34.54Zm-1.37,19.98v-16.48h2.75v16.48h-2.75Z" style="fill:#676565; stroke-width:0px;"/><path d="m484.64,466.61v-16.48h2.49l.13,2.88c.52-1.02,1.27-1.83,2.24-2.4.97-.58,2.08-.87,3.32-.87s2.4.26,3.34.77c.94.51,1.67,1.29,2.19,2.32.52,1.04.78,2.35.78,3.94v9.84h-2.75v-9.55c0-1.66-.37-2.9-1.1-3.73-.73-.83-1.76-1.24-3.09-1.24-.92,0-1.73.22-2.45.67-.72.45-1.29,1.09-1.72,1.93-.42.84-.64,1.88-.64,3.12v8.8h-2.75Z" style="fill:#676565; stroke-width:0px;"/><path d="m510.67,467c-1.59,0-2.99-.38-4.19-1.13-1.2-.75-2.13-1.78-2.78-3.09-.65-1.31-.98-2.79-.98-4.45s.33-3.13.98-4.43c.65-1.3,1.59-2.32,2.8-3.06,1.21-.74,2.61-1.11,4.2-1.11,1.35,0,2.53.27,3.55.82,1.01.55,1.79,1.31,2.34,2.29v-9.78h2.75v23.54h-2.49l-.23-2.71c-.35.54-.8,1.05-1.34,1.52-.55.47-1.2.85-1.96,1.14-.76.29-1.65.44-2.65.44Zm.33-2.39c1.09,0,2.05-.26,2.88-.78.83-.52,1.47-1.25,1.93-2.17.46-.93.69-2.02.69-3.29s-.23-2.33-.69-3.27c-.46-.94-1.1-1.67-1.93-2.19-.83-.52-1.79-.78-2.88-.78s-2.02.26-2.85.78c-.83.52-1.47,1.25-1.93,2.19-.46.94-.69,2.03-.69,3.27s.23,2.36.69,3.29c.46.93,1.1,1.65,1.93,2.17.83.52,1.78.78,2.85.78Z" style="fill:#676565; stroke-width:0px;"/><path d="m531.3,467c-1.55,0-2.93-.35-4.15-1.06-1.22-.71-2.18-1.71-2.88-3.01-.7-1.3-1.05-2.81-1.05-4.53s.35-3.3,1.06-4.59c.71-1.3,1.68-2.3,2.91-3.01,1.23-.71,2.62-1.06,4.17-1.06s2.93.35,4.14,1.06c1.21.71,2.17,1.71,2.88,2.99.71,1.29,1.06,2.81,1.06,4.58s-.36,3.26-1.08,4.56c-.72,1.3-1.69,2.3-2.91,3.01-1.22.71-2.61,1.06-4.15,1.06Zm0-2.35c.94,0,1.81-.23,2.62-.7.81-.47,1.46-1.17,1.96-2.11.5-.94.75-2.09.75-3.47s-.25-2.56-.74-3.48c-.49-.93-1.13-1.62-1.93-2.09-.8-.47-1.66-.7-2.6-.7s-1.81.23-2.63.7c-.82.47-1.47,1.17-1.96,2.09-.49.93-.74,2.09-.74,3.48s.25,2.53.74,3.47c.49.94,1.13,1.64,1.93,2.11.8.47,1.66.7,2.6.7Z" style="fill:#676565; stroke-width:0px;"/><path d="m546.01,466.61l-4.84-16.48h2.75l3.76,13.9h-.49l4.09-13.9h3.11l4.15,13.86-.52.03,3.73-13.9h2.78l-4.81,16.48h-2.81l-4.32-14.52h.56l-4.32,14.52h-2.81Z" style="fill:#676565; stroke-width:0px;"/><path d="m573.84,467c-1.37,0-2.57-.23-3.58-.69-1.01-.46-1.82-1.1-2.42-1.91-.6-.82-.96-1.78-1.1-2.89h2.81c.11.57.34,1.09.69,1.57.35.48.82.87,1.42,1.16.6.29,1.33.44,2.21.44.76,0,1.4-.11,1.9-.34.5-.23.88-.54,1.13-.93.25-.39.38-.82.38-1.28,0-.68-.16-1.19-.47-1.54-.32-.35-.78-.63-1.39-.83-.61-.21-1.35-.39-2.22-.54-.72-.13-1.43-.31-2.13-.52-.7-.22-1.32-.51-1.86-.87-.54-.36-.98-.8-1.29-1.32-.32-.52-.47-1.17-.47-1.93,0-.94.24-1.77.72-2.5.48-.73,1.17-1.3,2.08-1.72.9-.41,1.96-.62,3.16-.62,1.77,0,3.19.42,4.28,1.28,1.09.85,1.73,2.08,1.93,3.69h-2.71c-.11-.83-.46-1.48-1.06-1.95-.6-.47-1.42-.7-2.47-.7s-1.8.21-2.34.62c-.53.41-.8.96-.8,1.63,0,.44.15.82.44,1.16.29.34.73.63,1.31.87s1.29.44,2.14.59c1.09.2,2.08.46,2.98.78.89.33,1.62.81,2.17,1.46.56.64.83,1.55.83,2.73,0,1.02-.26,1.92-.77,2.68-.51.76-1.24,1.36-2.17,1.78-.94.42-2.04.64-3.3.64Z" style="fill:#676565; stroke-width:0px;"/><path d="m581.89,470.63l1.9-7.23h2.84l-2.84,7.23h-1.9Z" style="fill:#676565; stroke-width:0px;"/><path d="m598.86,466.61v-22.89h2.75v20.7h10.66v2.19h-13.41Z" style="fill:#676565; stroke-width:0px;"/><path d="m617.56,446.63c-.54,0-1-.18-1.36-.54-.36-.36-.54-.81-.54-1.36s.18-.99.54-1.32c.36-.34.81-.51,1.36-.51s.97.17,1.34.51c.37.34.56.78.56,1.32s-.19,1-.56,1.36c-.37.36-.82.54-1.34.54Zm-1.37,19.98v-16.48h2.75v16.48h-2.75Z" style="fill:#676565; stroke-width:0px;"/><path d="m623.77,466.61v-16.48h2.49l.13,2.88c.52-1.02,1.27-1.83,2.24-2.4.97-.58,2.08-.87,3.32-.87s2.4.26,3.34.77c.94.51,1.67,1.29,2.19,2.32.52,1.04.79,2.35.79,3.94v9.84h-2.75v-9.55c0-1.66-.37-2.9-1.1-3.73-.73-.83-1.76-1.24-3.09-1.24-.92,0-1.73.22-2.45.67-.72.45-1.29,1.09-1.72,1.93-.43.84-.64,1.88-.64,3.12v8.8h-2.75Z" style="fill:#676565; stroke-width:0px;"/><path d="m648.53,467c-1.26,0-2.37-.25-3.32-.75-.95-.5-1.68-1.27-2.19-2.32-.51-1.05-.77-2.35-.77-3.92v-9.88h2.75v9.58c0,1.66.36,2.89,1.08,3.71.72.82,1.74,1.23,3.07,1.23.92,0,1.74-.22,2.47-.67.73-.45,1.31-1.09,1.73-1.93.42-.84.64-1.87.64-3.09v-8.83h2.75v16.48h-2.49l-.16-2.88c-.5,1.02-1.24,1.83-2.22,2.4-.98.58-2.09.87-3.33.87Z" style="fill:#676565; stroke-width:0px;"/><path d="m659.64,466.61l5.59-8.24-5.59-8.24h3.01l4.45,6.74,4.51-6.74h2.94l-5.59,8.24,5.59,8.24h-2.94l-4.51-6.77-4.45,6.77h-3.01Z" style="fill:#676565; stroke-width:0px;"/><path d="m691.56,467c-1.33,0-2.44-.23-3.33-.7-.89-.47-1.56-1.09-2-1.86-.44-.77-.65-1.62-.65-2.53,0-1.11.29-2.05.87-2.83.58-.77,1.39-1.36,2.45-1.77,1.06-.4,2.31-.6,3.74-.6h4.35c0-1.02-.16-1.88-.47-2.57-.32-.69-.77-1.2-1.37-1.55-.6-.35-1.35-.52-2.24-.52-1.05,0-1.95.26-2.71.78-.76.52-1.23,1.3-1.41,2.32h-2.81c.13-1.18.53-2.16,1.19-2.96.66-.8,1.51-1.41,2.53-1.83,1.02-.43,2.09-.64,3.2-.64,1.53,0,2.8.28,3.81.83,1.01.56,1.77,1.33,2.27,2.32.5.99.75,2.16.75,3.52v10.2h-2.45l-.16-2.91c-.22.46-.5.89-.83,1.29-.34.4-.74.75-1.19,1.05s-.98.53-1.55.7-1.24.26-1.98.26Zm.43-2.32c.76,0,1.46-.16,2.08-.47s1.15-.75,1.59-1.31c.44-.56.77-1.17,1-1.85.23-.68.34-1.38.34-2.13v-.1h-4.12c-1.07,0-1.93.13-2.58.38-.65.25-1.12.6-1.41,1.05-.28.45-.43.95-.43,1.52s.14,1.1.41,1.54c.27.44.68.77,1.21,1.01.53.24,1.17.36,1.91.36Z" style="fill:#676565; stroke-width:0px;"/><path d="m703.98,466.61v-16.48h2.49l.13,2.88c.52-1.02,1.27-1.83,2.24-2.4.97-.58,2.08-.87,3.32-.87s2.4.26,3.34.77c.94.51,1.67,1.29,2.19,2.32.52,1.04.79,2.35.79,3.94v9.84h-2.75v-9.55c0-1.66-.37-2.9-1.1-3.73-.73-.83-1.76-1.24-3.09-1.24-.92,0-1.73.22-2.45.67-.72.45-1.29,1.09-1.72,1.93-.43.84-.64,1.88-.64,3.12v8.8h-2.75Z" style="fill:#676565; stroke-width:0px;"/><path d="m730.01,467c-1.59,0-2.99-.38-4.19-1.13-1.2-.75-2.12-1.78-2.78-3.09-.65-1.31-.98-2.79-.98-4.45s.33-3.13.98-4.43c.65-1.3,1.59-2.32,2.8-3.06s2.61-1.11,4.2-1.11c1.35,0,2.53.27,3.55.82,1.01.55,1.79,1.31,2.34,2.29v-9.78h2.75v23.54h-2.49l-.23-2.71c-.35.54-.8,1.05-1.34,1.52s-1.2.85-1.96,1.14c-.76.29-1.65.44-2.65.44Zm.33-2.39c1.09,0,2.05-.26,2.88-.78.83-.52,1.47-1.25,1.93-2.17.46-.93.69-2.02.69-3.29s-.23-2.33-.69-3.27c-.46-.94-1.1-1.67-1.93-2.19-.83-.52-1.79-.78-2.88-.78s-2.02.26-2.84.78c-.83.52-1.47,1.25-1.93,2.19-.46.94-.69,2.03-.69,3.27s.23,2.36.69,3.29c.46.93,1.1,1.65,1.93,2.17.83.52,1.78.78,2.84.78Z" style="fill:#676565; stroke-width:0px;"/><path d="m751.95,466.61v-16.48h2.49l.16,2.35c.52-.85,1.23-1.52,2.11-2.01.88-.49,1.85-.74,2.89-.74.85,0,1.62.11,2.31.34s1.29.58,1.81,1.05c.52.47.95,1.06,1.28,1.78.57-1,1.35-1.78,2.34-2.34.99-.56,2.05-.83,3.19-.83,1.26,0,2.37.26,3.32.77s1.68,1.29,2.19,2.32c.51,1.04.77,2.35.77,3.94v9.84h-2.71v-9.55c0-1.66-.34-2.9-1.01-3.73-.68-.83-1.62-1.24-2.84-1.24-.85,0-1.61.22-2.29.67-.68.45-1.21,1.1-1.6,1.95s-.59,1.9-.59,3.14v8.76h-2.75v-9.55c0-1.66-.34-2.9-1.01-3.73-.68-.83-1.63-1.24-2.88-1.24-.83,0-1.58.22-2.24.67-.67.45-1.19,1.1-1.59,1.95-.39.85-.59,1.9-.59,3.14v8.76h-2.75Z" style="fill:#676565; stroke-width:0px;"/><path d="m786.45,467c-1.33,0-2.44-.23-3.33-.7-.89-.47-1.56-1.09-2-1.86-.44-.77-.65-1.62-.65-2.53,0-1.11.29-2.05.87-2.83.58-.77,1.39-1.36,2.45-1.77,1.06-.4,2.31-.6,3.74-.6h4.35c0-1.02-.16-1.88-.47-2.57-.32-.69-.77-1.2-1.37-1.55-.6-.35-1.35-.52-2.24-.52-1.05,0-1.95.26-2.71.78-.76.52-1.23,1.3-1.41,2.32h-2.81c.13-1.18.53-2.16,1.19-2.96.66-.8,1.51-1.41,2.53-1.83,1.02-.43,2.09-.64,3.2-.64,1.53,0,2.8.28,3.81.83,1.01.56,1.77,1.33,2.27,2.32.5.99.75,2.16.75,3.52v10.2h-2.45l-.16-2.91c-.22.46-.5.89-.83,1.29-.34.4-.74.75-1.19,1.05s-.98.53-1.55.7-1.24.26-1.98.26Zm.43-2.32c.76,0,1.46-.16,2.08-.47s1.15-.75,1.59-1.31c.44-.56.77-1.17,1-1.85.23-.68.34-1.38.34-2.13v-.1h-4.12c-1.07,0-1.93.13-2.58.38-.65.25-1.12.6-1.41,1.05-.28.45-.43.95-.43,1.52s.14,1.1.41,1.54c.27.44.68.77,1.21,1.01.53.24,1.17.36,1.91.36Z" style="fill:#676565; stroke-width:0px;"/><path d="m806.3,467c-1.55,0-2.94-.36-4.17-1.08-1.23-.72-2.2-1.73-2.89-3.02-.7-1.3-1.05-2.8-1.05-4.5s.35-3.26,1.05-4.56c.7-1.3,1.66-2.31,2.89-3.02,1.23-.72,2.62-1.08,4.17-1.08,1.96,0,3.6.51,4.91,1.52,1.31,1.01,2.14,2.37,2.49,4.07h-2.81c-.22-1.02-.75-1.82-1.6-2.39s-1.85-.85-3.01-.85c-.94,0-1.81.23-2.62.7-.81.47-1.45,1.17-1.93,2.09-.48.93-.72,2.09-.72,3.48,0,1.02.14,1.93.43,2.73.28.8.66,1.46,1.14,1.98.48.52,1.04.92,1.68,1.19.64.27,1.31.41,2.01.41.76,0,1.47-.13,2.11-.39s1.18-.64,1.62-1.13c.44-.49.73-1.07.88-1.75h2.81c-.35,1.66-1.18,3-2.5,4.04-1.32,1.04-2.95,1.55-4.89,1.55Z" style="fill:#676565; stroke-width:0px;"/><path d="m827.95,467c-2.2,0-4.13-.5-5.79-1.49-1.66-.99-2.95-2.38-3.89-4.15-.94-1.78-1.41-3.84-1.41-6.2s.47-4.39,1.41-6.16c.94-1.78,2.23-3.17,3.89-4.17,1.66-1,3.59-1.5,5.79-1.5s4.17.5,5.84,1.5c1.67,1,2.96,2.39,3.89,4.17.93,1.78,1.39,3.83,1.39,6.16s-.46,4.42-1.39,6.2c-.93,1.78-2.22,3.16-3.89,4.15-1.67.99-3.61,1.49-5.84,1.49Zm0-2.42c1.66,0,3.11-.38,4.37-1.13,1.25-.75,2.22-1.83,2.91-3.24.69-1.41,1.03-3.09,1.03-5.05s-.34-3.65-1.03-5.05-1.66-2.48-2.91-3.22c-1.25-.74-2.71-1.11-4.37-1.11s-3.07.37-4.32,1.11c-1.24.74-2.21,1.81-2.91,3.22-.7,1.41-1.05,3.09-1.05,5.05s.35,3.65,1.05,5.05c.7,1.41,1.67,2.49,2.91,3.24,1.24.75,2.68,1.13,4.32,1.13Z" style="fill:#676565; stroke-width:0px;"/><path d="m850.35,467c-1.68,0-3.14-.31-4.38-.92-1.24-.61-2.2-1.46-2.88-2.55-.68-1.09-1.01-2.35-1.01-3.79h2.88c0,.89.21,1.72.62,2.47.41.75,1.02,1.35,1.81,1.8.8.45,1.78.67,2.96.67,1.02,0,1.9-.17,2.63-.51s1.29-.8,1.67-1.39c.38-.59.57-1.25.57-2,0-.89-.19-1.62-.57-2.17-.38-.56-.9-1.01-1.55-1.36s-1.41-.66-2.27-.93c-.86-.27-1.76-.56-2.7-.87-1.81-.61-3.14-1.37-3.99-2.29-.85-.92-1.28-2.1-1.28-3.56,0-1.24.29-2.33.87-3.27.58-.94,1.41-1.67,2.49-2.21s2.36-.8,3.84-.8,2.73.27,3.81.82c1.08.55,1.92,1.29,2.53,2.24.61.95.92,2.04.92,3.29h-2.88c0-.63-.16-1.25-.49-1.86s-.82-1.12-1.49-1.52c-.67-.4-1.5-.6-2.5-.6-.83-.02-1.56.11-2.21.41-.64.29-1.14.71-1.5,1.26-.36.55-.54,1.21-.54,1.99,0,.74.16,1.34.47,1.8.32.46.77.85,1.37,1.16.6.32,1.3.6,2.11.87.81.26,1.7.56,2.68.88,1.11.37,2.1.82,2.96,1.36.86.53,1.54,1.22,2.03,2.04.49.83.74,1.89.74,3.17,0,1.09-.29,2.12-.87,3.09-.58.97-1.43,1.76-2.57,2.37-1.13.61-2.56.92-4.28.92Z" style="fill:#676565; stroke-width:0px;"/><path d="m862.84,466.77c-.54,0-1-.18-1.36-.54s-.54-.8-.54-1.32.18-.96.54-1.32c.36-.36.81-.54,1.36-.54s.99.18,1.34.54c.35.36.52.8.52,1.32s-.17.96-.52,1.32-.8.54-1.34.54Z" style="fill:#676565; stroke-width:0px;"/><path d="m517.43,560.95v-3.7h10.24v3.7h-10.24Zm2.26,12.79v-17.95c0-1.37.23-2.46.69-3.27.46-.81,1.12-1.4,1.98-1.77.86-.37,1.87-.56,3.02-.56h2.03v3.76h-1.34c-.7,0-1.2.14-1.5.41-.31.27-.46.74-.46,1.39v17.98h-4.41Z" style="fill:#bf4e6a; stroke-width:0px;"/><path d="m538.23,574.13c-1.59,0-3.01-.37-4.27-1.1-1.25-.73-2.25-1.74-2.98-3.04-.73-1.3-1.1-2.78-1.1-4.46s.37-3.23,1.1-4.53c.73-1.3,1.73-2.31,2.99-3.04,1.26-.73,2.69-1.1,4.28-1.1s3.01.37,4.25,1.1c1.24.73,2.23,1.74,2.96,3.02.73,1.29,1.1,2.79,1.1,4.51s-.37,3.2-1.1,4.5c-.73,1.3-1.72,2.31-2.98,3.04-1.25.73-2.68,1.1-4.27,1.1Zm0-3.83c.7,0,1.33-.18,1.91-.54.58-.36,1.05-.9,1.41-1.62.36-.72.54-1.6.54-2.65s-.17-1.96-.52-2.67c-.35-.71-.81-1.24-1.37-1.6-.57-.36-1.2-.54-1.9-.54s-1.37.18-1.96.54c-.59.36-1.06.89-1.41,1.6-.35.71-.52,1.6-.52,2.67s.17,1.93.51,2.65c.34.72.8,1.26,1.39,1.62.59.36,1.23.54,1.93.54Z" style="fill:#bf4e6a; stroke-width:0px;"/><path d="m550.36,573.74v-16.48h3.89l.29,2.71c.52-.96,1.25-1.72,2.17-2.27.93-.56,2.03-.83,3.32-.83,1.37,0,2.53.29,3.47.87.94.58,1.66,1.41,2.16,2.5.5,1.09.75,2.42.75,3.99v9.52h-4.41v-9.12c0-1.29-.28-2.28-.85-2.98-.57-.7-1.43-1.05-2.58-1.05-.72,0-1.37.17-1.95.52-.58.35-1.03.85-1.36,1.49-.33.64-.49,1.43-.49,2.37v8.76h-4.41Z" style="fill:#bf4e6a; stroke-width:0px;"/><path d="m577.96,573.74c-1.13,0-2.14-.18-3.01-.54-.87-.36-1.55-.96-2.03-1.8-.48-.84-.72-1.99-.72-3.45v-7h-2.84v-3.7h2.84l.49-4.51h3.92v4.51h4.35v3.7h-4.35v7.06c0,.74.16,1.25.49,1.54.33.28.88.43,1.67.43h2.13v3.76h-2.94Z" style="fill:#bf4e6a; stroke-width:0px;"/><path d="m587.02,555c-.81,0-1.46-.23-1.96-.7-.5-.47-.75-1.06-.75-1.78s.25-1.31.75-1.78c.5-.47,1.16-.7,1.96-.7s1.47.23,1.98.7c.51.47.77,1.06.77,1.78s-.26,1.31-.77,1.78-1.17.7-1.98.7Zm-2.22,18.74v-16.48h4.41v16.48h-4.41Z" style="fill:#bf4e6a; stroke-width:0px;"/><path d="m600.39,574.13c-1.53,0-2.84-.24-3.94-.72-1.1-.48-1.97-1.14-2.6-1.98-.63-.84-.99-1.8-1.08-2.89h4.41c.09.39.26.76.52,1.11.26.35.61.62,1.05.82.44.2.96.29,1.57.29s1.07-.08,1.46-.25c.38-.16.67-.39.85-.67.18-.28.28-.58.28-.88,0-.46-.14-.81-.41-1.05-.27-.24-.66-.45-1.16-.62-.5-.17-1.11-.33-1.83-.46-.79-.15-1.55-.34-2.31-.57-.75-.23-1.42-.52-2.01-.88-.59-.36-1.06-.81-1.41-1.34-.35-.53-.52-1.2-.52-2.01,0-.96.26-1.83.79-2.62.52-.78,1.29-1.41,2.31-1.86,1.01-.46,2.21-.69,3.58-.69,2.01,0,3.59.45,4.74,1.34,1.15.89,1.84,2.13,2.06,3.69h-4.15c-.13-.52-.42-.93-.87-1.21-.45-.28-1.04-.42-1.78-.42s-1.36.14-1.78.42c-.43.28-.64.64-.64,1.08,0,.31.14.58.41.82.27.24.66.45,1.16.62.5.17,1.11.34,1.83.49,1.26.26,2.38.56,3.33.9.96.34,1.71.82,2.26,1.44.54.62.82,1.52.82,2.7,0,1.05-.28,1.98-.85,2.8-.57.82-1.37,1.46-2.4,1.91-1.04.46-2.26.69-3.68.69Z" style="fill:#bf4e6a; stroke-width:0px;"/><path d="m617.98,573.74c-1.13,0-2.14-.18-3.01-.54s-1.55-.96-2.03-1.8c-.48-.84-.72-1.99-.72-3.45v-7h-2.84v-3.7h2.84l.49-4.51h3.92v4.51h4.35v3.7h-4.35v7.06c0,.74.16,1.25.49,1.54.33.28.88.43,1.67.43h2.13v3.76h-2.94Z" style="fill:#bf4e6a; stroke-width:0px;"/><path d="m626.72,573.9c-.83,0-1.49-.25-2-.74-.5-.49-.75-1.1-.75-1.81s.25-1.32.75-1.81c.5-.49,1.17-.74,2-.74.78,0,1.43.25,1.95.74.51.49.77,1.1.77,1.81s-.26,1.32-.77,1.81c-.51.49-1.16.74-1.95.74Z" style="fill:#bf4e6a; stroke-width:0px;"/><path d="m640.78,574.13c-1.59,0-3.01-.37-4.27-1.1-1.25-.73-2.25-1.74-2.98-3.04-.73-1.3-1.1-2.78-1.1-4.46s.37-3.23,1.1-4.53c.73-1.3,1.73-2.31,2.99-3.04,1.26-.73,2.69-1.1,4.28-1.1s3.01.37,4.25,1.1c1.24.73,2.23,1.74,2.96,3.02.73,1.29,1.09,2.79,1.09,4.51s-.37,3.2-1.09,4.5c-.73,1.3-1.72,2.31-2.98,3.04-1.25.73-2.68,1.1-4.27,1.1Zm0-3.83c.7,0,1.33-.18,1.91-.54.58-.36,1.05-.9,1.41-1.62.36-.72.54-1.6.54-2.65s-.17-1.96-.52-2.67-.81-1.24-1.37-1.6c-.57-.36-1.2-.54-1.9-.54s-1.37.18-1.96.54c-.59.36-1.06.89-1.41,1.6s-.52,1.6-.52,2.67.17,1.93.51,2.65c.34.72.8,1.26,1.39,1.62.59.36,1.23.54,1.93.54Z" style="fill:#bf4e6a; stroke-width:0px;"/><path d="m652.91,573.74v-16.48h3.92l.39,3.01c.41-.7.92-1.3,1.52-1.81s1.29-.9,2.06-1.18c.77-.27,1.63-.41,2.57-.41v4.68h-1.5c-.65,0-1.26.07-1.82.21-.56.14-1.04.39-1.46.75s-.73.83-.95,1.41-.33,1.31-.33,2.21v7.62h-4.41Z" style="fill:#bf4e6a; stroke-width:0px;"/><path d="m672.99,581.33c-1.57,0-2.94-.19-4.12-.57-1.18-.38-2.09-.96-2.73-1.73-.64-.77-.96-1.73-.96-2.86,0-.79.2-1.52.59-2.19.39-.68.97-1.29,1.73-1.85.76-.56,1.7-1.03,2.81-1.42l1.67,2.19c-1,.33-1.72.74-2.16,1.24-.44.5-.65,1.02-.65,1.57,0,.5.16.93.49,1.28.33.35.78.6,1.37.77s1.23.25,1.93.25,1.31-.09,1.83-.26c.52-.17.93-.42,1.23-.75.29-.33.44-.73.44-1.21,0-.61-.21-1.1-.64-1.46-.43-.36-1.26-.58-2.5-.67-1.09-.09-2.07-.22-2.94-.39-.87-.17-1.63-.37-2.27-.59-.64-.22-1.19-.47-1.65-.75s-.83-.57-1.11-.85v-.75l3.5-3.76,3.17,1.01-4.12,4.05,1.27-2.19c.22.15.45.29.69.43.24.13.53.24.88.33.35.09.8.17,1.36.25.56.08,1.27.16,2.14.25,1.46.11,2.65.37,3.58.78.93.41,1.6.97,2.03,1.67.43.7.64,1.55.64,2.55s-.27,1.9-.8,2.75c-.53.85-1.35,1.55-2.45,2.09-1.1.54-2.51.82-4.23.82Zm.03-12.46c-1.37,0-2.56-.27-3.56-.8-1-.53-1.77-1.25-2.31-2.16-.53-.9-.8-1.91-.8-3.02s.27-2.12.8-3.02c.53-.9,1.3-1.63,2.29-2.17.99-.54,2.19-.82,3.58-.82s2.56.27,3.55.82c.99.55,1.75,1.27,2.27,2.17.52.91.79,1.91.79,3.02s-.26,2.12-.79,3.02c-.52.9-1.28,1.62-2.27,2.16-.99.53-2.17.8-3.55.8Zm0-3.37c.85,0,1.53-.22,2.04-.65.51-.44.77-1.09.77-1.96s-.26-1.49-.77-1.93c-.51-.44-1.19-.65-2.04-.65s-1.54.22-2.08.65c-.53.44-.8,1.08-.8,1.93s.26,1.53.79,1.96c.52.44,1.22.65,2.09.65Zm2.71-5.13l-.72-3.11h6.8v2.62l-6.08.49Z" style="fill:#bf4e6a; stroke-width:0px;"/><rect width="1200" height="46.71" style="fill:#bf4e6a; stroke-width:0px;"/></svg>