<?xml version="1.0" encoding="UTF-8"?><svg id="uuid-06eaf0d8-25b7-40e8-8fed-e9503817fc69" xmlns="http://www.w3.org/2000/svg" width="64" height="64" xmlns:xlink="http://www.w3.org/1999/xlink" viewBox="0 0 64 64"><defs><linearGradient id="uuid-ba8c8870-6548-485a-9284-483f22dbae33" x1="23.71" y1="22.95" x2="43.33" y2="3.33" gradientUnits="userSpaceOnUse"><stop offset="0" stop-color="#83a3f5" stop-opacity=".1"/><stop offset=".34" stop-color="#aea4ed" stop-opacity=".5"/><stop offset=".46" stop-color="#4995cd"/><stop offset=".64" stop-color="#0049aa"/><stop offset=".81" stop-color="#4995cd" stop-opacity=".4"/><stop offset="1" stop-color="#0049aa" stop-opacity=".2"/></linearGradient><linearGradient id="uuid-35978d1f-5b13-4de3-bdc3-754c6f0b2072" x1="10.75" y1="19.26" x2="16.5" y2="13.51" gradientUnits="userSpaceOnUse"><stop offset="0" stop-color="#83a3f5" stop-opacity=".1"/><stop offset=".28" stop-color="#aea4ed" stop-opacity=".5"/><stop offset=".8" stop-color="#a7a3eb" stop-opacity=".69"/></linearGradient><linearGradient id="uuid-33cf3a34-a3fa-4e02-802e-d5c906563e31" x1="23.83" y1="32.34" x2="43.99" y2="12.18" gradientUnits="userSpaceOnUse"><stop offset="0" stop-color="#83a3f5" stop-opacity=".1"/><stop offset=".34" stop-color="#aea4ed" stop-opacity=".5"/><stop offset=".56" stop-color="#4995cd"/><stop offset=".77" stop-color="#0049aa"/><stop offset=".9" stop-color="#4995cd" stop-opacity=".4"/><stop offset="1" stop-color="#0049aa" stop-opacity=".2"/></linearGradient><linearGradient id="uuid-e8e7ec3b-8e77-4c3f-b074-1a51f94f1b4b" x1="50.7" y1="16.74" x2="55.97" y2="22.01" gradientUnits="userSpaceOnUse"><stop offset="0" stop-color="#83a3f5" stop-opacity=".1"/><stop offset=".06" stop-color="#aea4ed" stop-opacity=".5"/><stop offset=".15" stop-color="#4995cd"/><stop offset=".78" stop-color="#0049aa"/></linearGradient><linearGradient id="uuid-3d75517f-1e0a-47a8-8dfa-2500d4333c5b" x1="10.67" y1="34.81" x2="15.96" y2="29.51" gradientUnits="userSpaceOnUse"><stop offset="0" stop-color="#83a3f5" stop-opacity=".1"/><stop offset=".34" stop-color="#aea4ed" stop-opacity=".5"/><stop offset=".65" stop-color="#a7a3eb" stop-opacity=".69"/></linearGradient><linearGradient id="uuid-7a3d2b46-97f8-4aaf-b412-deeda0b9970f" x1="18.31" y1="32.25" x2="28.37" y2="22.19" gradientUnits="userSpaceOnUse"><stop offset="0" stop-color="#83a3f5" stop-opacity=".1"/><stop offset=".34" stop-color="#aea4ed" stop-opacity=".5"/><stop offset=".46" stop-color="#4995cd"/><stop offset=".73" stop-color="#0049aa"/><stop offset=".81" stop-color="#4995cd" stop-opacity=".4"/><stop offset=".93" stop-color="#3b86c6" stop-opacity=".54"/><stop offset="1" stop-color="#0049aa" stop-opacity=".2"/></linearGradient><linearGradient id="uuid-bf314bc5-9de5-4427-b356-005e1ed27976" x1="30.64" y1="28.29" x2="35.01" y2="35.88" gradientUnits="userSpaceOnUse"><stop offset="0" stop-color="#83a3f5" stop-opacity=".1"/><stop offset=".33" stop-color="#aea4ed" stop-opacity=".5"/><stop offset=".72" stop-color="#0049aa" stop-opacity=".9"/></linearGradient><linearGradient id="uuid-2b4fdac4-5828-4ce5-8eb8-d5b2eff5d96c" x1="18.1" y1="42.23" x2="28.58" y2="31.76" gradientUnits="userSpaceOnUse"><stop offset="0" stop-color="#83a3f5" stop-opacity=".1"/><stop offset=".34" stop-color="#aea4ed" stop-opacity=".5"/><stop offset=".65" stop-color="#6299d5" stop-opacity=".72"/><stop offset=".91" stop-color="#0049aa"/></linearGradient><linearGradient id="uuid-9b35ec0a-50ae-49a3-9cbb-35b126910631" x1="41.22" y1="34.7" x2="35.6" y2="29.08" xlink:href="#uuid-bf314bc5-9de5-4427-b356-005e1ed27976"/><linearGradient id="uuid-a0f33d13-6982-42df-8f4b-53973a1d7a53" x1="41.19" y1="32.36" x2="50.2" y2="23.36" xlink:href="#uuid-7a3d2b46-97f8-4aaf-b412-deeda0b9970f"/><linearGradient id="uuid-354a97f2-c6a8-4acd-bb69-8a55d1d2e606" x1="50.48" y1="27.99" x2="54.89" y2="35.64" gradientUnits="userSpaceOnUse"><stop offset="0" stop-color="#83a3f5" stop-opacity=".1"/><stop offset=".11" stop-color="#aea4ed" stop-opacity=".5"/><stop offset=".46" stop-color="#4995cd"/><stop offset=".86" stop-color="#0049aa"/></linearGradient><linearGradient id="uuid-0ce862fa-2184-42c8-9012-a6260a0b630f" x1="41.23" y1="40.17" x2="50" y2="31.41" gradientUnits="userSpaceOnUse"><stop offset="0" stop-color="#83a3f5" stop-opacity=".1"/><stop offset=".43" stop-color="#aea4ed" stop-opacity=".5"/><stop offset=".63" stop-color="#4995cd"/><stop offset=".88" stop-color="#0049aa"/></linearGradient><linearGradient id="uuid-d6d4d494-1181-4f63-b2c2-a519a56512ff" x1="10.28" y1="50.98" x2="16.85" y2="44.41" gradientUnits="userSpaceOnUse"><stop offset="0" stop-color="#83a3f5" stop-opacity=".1"/><stop offset=".34" stop-color="#aea4ed" stop-opacity=".5"/><stop offset=".65" stop-color="#a7a3eb" stop-opacity=".69"/><stop offset=".86" stop-color="#4995cd"/></linearGradient><linearGradient id="uuid-383bb7ae-2444-4ca6-9e92-745138a3e869" x1="16.82" y1="57.51" x2="28.62" y2="45.71" gradientUnits="userSpaceOnUse"><stop offset="0" stop-color="#83a3f5" stop-opacity=".1"/><stop offset=".34" stop-color="#aea4ed" stop-opacity=".5"/><stop offset=".62" stop-color="#6299d5" stop-opacity=".72"/><stop offset=".9" stop-color="#0049aa"/></linearGradient><linearGradient id="uuid-1bdcc74e-c2fc-4cb6-8aa0-e050ab4bf5b3" x1="34.78" y1="43.44" x2="30.19" y2="48.03" xlink:href="#uuid-bf314bc5-9de5-4427-b356-005e1ed27976"/><linearGradient id="uuid-d96ee33f-4baf-4dec-8d25-9a098fee197e" x1="17.65" y1="47.71" x2="28.36" y2="37.01" gradientUnits="userSpaceOnUse"><stop offset="0" stop-color="#83a3f5" stop-opacity=".1"/><stop offset=".09" stop-color="#0049aa"/><stop offset=".39" stop-color="#4995cd"/><stop offset="1" stop-color="#0049aa" stop-opacity=".6"/></linearGradient><linearGradient id="uuid-b4bc57e8-d371-4a68-86e1-915a3c61c86a" x1="35.9" y1="47.29" x2="40.45" y2="42.74" xlink:href="#uuid-bf314bc5-9de5-4427-b356-005e1ed27976"/><linearGradient id="uuid-1405ba13-cb80-45b0-aeca-5cff46e16239" x1="54.26" y1="40.37" x2="50.6" y2="46.73" gradientUnits="userSpaceOnUse"><stop offset="0" stop-color="#83a3f5" stop-opacity=".1"/><stop offset=".11" stop-color="#aea4ed" stop-opacity=".5"/><stop offset=".74" stop-color="#4995cd"/><stop offset="1" stop-color="#0049aa"/></linearGradient><linearGradient id="uuid-3a4fdee2-53c6-4d0c-9c51-b2de4778cf82" x1="45.53" y1="39.31" x2="45.53" y2="41.53" xlink:href="#uuid-d96ee33f-4baf-4dec-8d25-9a098fee197e"/><linearGradient id="uuid-c46098c8-b6fe-4ca5-929a-17e59fd9e3c0" x1="41.11" y1="52.5" x2="49.68" y2="43.93" gradientUnits="userSpaceOnUse"><stop offset="0" stop-color="#83a3f5" stop-opacity=".1"/><stop offset=".34" stop-color="#aea4ed" stop-opacity=".5"/><stop offset=".65" stop-color="#6299d5" stop-opacity=".72"/><stop offset=".86" stop-color="#0049aa"/></linearGradient></defs><polygon points="13.26 10.27 13.92 13.16 50.8 16.63 54.9 14.9 13.26 10.27" style="fill:#faf8f5; stroke-width:0px;"/><polygon points="13.26 21.1 14 22.5 13.92 13.16 13.26 10.27 13.26 21.1" style="fill:#faf8f5; stroke-width:0px;"/><polygon points="50.8 24.08 14 22.5 13.26 21.1 54.9 23.08 50.8 24.08" style="fill:#faf8f5; stroke-width:0px;"/><polygon points="50.8 16.63 50.8 22.89 54.9 23.08 54.9 14.9 50.8 16.63" style="fill:#faf8f5; stroke-width:0px;"/><polygon points="13.26 27.05 13.26 37.39 14 36.4 14 27.55 13.26 27.05" style="fill:#faf8f5; stroke-width:0px;"/><polygon points="33.54 27.36 31.55 27.76 13.88 27.57 13.14 27.08 33.54 27.36" style="fill:#faf8f5; stroke-width:0px;"/><polygon points="31.55 35.84 33.54 36.73 33.54 27.36 31.55 27.76 31.55 35.84" style="fill:#faf8f5; stroke-width:0px;"/><polygon points="33.54 36.73 31.55 35.84 14 36.4 13.26 37.39 33.54 36.73" style="fill:#faf8f5; stroke-width:0px;"/><polygon points="36.75 27.93 39.49 27.5 39.4 36.53 36.75 35.7 36.75 27.93" style="fill:#faf8f5; stroke-width:0px;"/><polygon points="54.63 27.79 50.37 28.06 36.75 27.93 39.49 27.5 54.63 27.79" style="fill:#faf8f5; stroke-width:0px;"/><polygon points="54.47 35.88 50.37 35.19 50.37 28.06 54.63 27.79 54.47 35.88" style="fill:#faf8f5; stroke-width:0px;"/><polyline points="54.47 35.88 39.4 36.53 36.75 35.7 50.37 35.19" style="fill:#faf8f5; stroke-width:0px;"/><polygon points="13.14 53.83 13.88 50.41 14 41.55 13.26 43.32 13.14 53.83" style="fill:#faf8f5; stroke-width:0px;"/><polygon points="31.31 48.4 33.26 51.1 13.14 53.83 13.88 50.41 31.31 48.4" style="fill:#faf8f5; stroke-width:0px;"/><polygon points="33.26 41.92 33.26 51.1 31.31 48.4 31.55 40.52 33.26 41.92" style="fill:#faf8f5; stroke-width:0px;"/><polygon points="13.26 43.32 14 41.55 31.55 40.52 33.26 41.92 13.26 43.32" style="fill:#faf8f5; stroke-width:0px;"/><polygon points="36.66 40.1 36.54 47.9 39.11 50.5 39.24 41.53 36.66 40.1" style="fill:#faf8f5; stroke-width:0px;"/><polygon points="54.39 40.45 54.27 48.52 50.17 46.49 50.17 39.31 54.39 40.45" style="fill:#faf8f5; stroke-width:0px;"/><polygon points="36.66 40.1 50.17 39.31 54.39 40.45 39.24 41.53 36.66 40.1" style="fill:#faf8f5; stroke-width:0px;"/><polygon points="39.11 50.5 36.54 47.9 50.17 46.49 54.27 48.52 39.11 50.5" style="fill:#faf8f5; stroke-width:0px;"/><polygon points="13.26 10.27 13.92 13.16 50.8 16.63 54.9 14.9 13.26 10.27" style="fill:url(#uuid-ba8c8870-6548-485a-9284-483f22dbae33); stroke-width:0px;"/><polygon points="13.26 21.1 14 22.5 13.92 13.16 13.26 10.27 13.26 21.1" style="fill:url(#uuid-35978d1f-5b13-4de3-bdc3-754c6f0b2072); stroke-width:0px;"/><polygon points="50.8 24.08 14 22.5 13.26 21.1 54.9 23.08 50.8 24.08" style="fill:url(#uuid-33cf3a34-a3fa-4e02-802e-d5c906563e31); stroke-width:0px;"/><polygon points="50.8 16.63 50.8 22.89 54.9 23.08 54.9 14.9 50.8 16.63" style="fill:url(#uuid-e8e7ec3b-8e77-4c3f-b074-1a51f94f1b4b); stroke-width:0px;"/><polygon points="13.26 27.05 13.26 37.39 14 36.4 14 27.55 13.26 27.05" style="fill:url(#uuid-3d75517f-1e0a-47a8-8dfa-2500d4333c5b); stroke-width:0px;"/><polygon points="33.54 27.36 31.55 27.76 13.88 27.57 13.14 27.08 33.54 27.36" style="fill:url(#uuid-7a3d2b46-97f8-4aaf-b412-deeda0b9970f); stroke-width:0px;"/><polygon points="31.55 35.84 33.54 36.73 33.54 27.36 31.55 27.76 31.55 35.84" style="fill:url(#uuid-bf314bc5-9de5-4427-b356-005e1ed27976); stroke-width:0px;"/><polygon points="33.54 36.73 31.55 35.84 14 36.4 13.26 37.39 33.54 36.73" style="fill:url(#uuid-2b4fdac4-5828-4ce5-8eb8-d5b2eff5d96c); stroke-width:0px;"/><polygon points="36.75 27.93 39.49 27.5 39.4 36.53 36.75 35.7 36.75 27.93" style="fill:url(#uuid-9b35ec0a-50ae-49a3-9cbb-35b126910631); stroke-width:0px;"/><polygon points="54.63 27.79 50.37 28.06 36.75 27.93 39.49 27.5 54.63 27.79" style="fill:url(#uuid-a0f33d13-6982-42df-8f4b-53973a1d7a53); stroke-width:0px;"/><polygon points="54.47 35.88 50.37 35.19 50.37 28.06 54.63 27.79 54.47 35.88" style="fill:url(#uuid-354a97f2-c6a8-4acd-bb69-8a55d1d2e606); stroke-width:0px;"/><polyline points="54.47 35.88 39.4 36.53 36.75 35.7 50.37 35.19" style="fill:url(#uuid-0ce862fa-2184-42c8-9012-a6260a0b630f); stroke-width:0px;"/><polygon points="13.14 53.83 13.88 50.41 14 41.55 13.26 43.32 13.14 53.83" style="fill:url(#uuid-d6d4d494-1181-4f63-b2c2-a519a56512ff); stroke-width:0px;"/><polygon points="31.31 48.4 33.26 51.1 13.14 53.83 13.88 50.41 31.31 48.4" style="fill:url(#uuid-383bb7ae-2444-4ca6-9e92-745138a3e869); stroke-width:0px;"/><polygon points="33.26 41.92 33.26 51.1 31.31 48.4 31.55 40.52 33.26 41.92" style="fill:url(#uuid-1bdcc74e-c2fc-4cb6-8aa0-e050ab4bf5b3); stroke-width:0px;"/><polygon points="13.26 43.32 14 41.55 31.55 40.52 33.26 41.92 13.26 43.32" style="fill:url(#uuid-d96ee33f-4baf-4dec-8d25-9a098fee197e); stroke-width:0px;"/><polygon points="36.66 40.1 36.54 47.9 39.11 50.5 39.24 41.53 36.66 40.1" style="fill:url(#uuid-b4bc57e8-d371-4a68-86e1-915a3c61c86a); stroke-width:0px;"/><polygon points="54.39 40.45 54.27 48.52 50.17 46.49 50.17 39.31 54.39 40.45" style="fill:url(#uuid-1405ba13-cb80-45b0-aeca-5cff46e16239); stroke-width:0px;"/><polygon points="36.66 40.1 50.17 39.31 54.39 40.45 39.24 41.53 36.66 40.1" style="fill:url(#uuid-3a4fdee2-53c6-4d0c-9c51-b2de4778cf82); stroke-width:0px;"/><polygon points="39.11 50.5 36.54 47.9 50.17 46.49 54.27 48.52 39.11 50.5" style="fill:url(#uuid-c46098c8-b6fe-4ca5-929a-17e59fd9e3c0); stroke-width:0px;"/></svg>