<?xml version="1.0" encoding="UTF-8"?><svg id="uuid-fe493596-df85-490c-96b9-0ae9bf0d1f31" xmlns="http://www.w3.org/2000/svg" width="64" height="64" xmlns:xlink="http://www.w3.org/1999/xlink" viewBox="0 0 64 64"><defs><linearGradient id="uuid-79762191-32ef-4d14-a013-ccf0cb79dfa9" x1="23.71" y1="22.95" x2="43.33" y2="3.33" gradientUnits="userSpaceOnUse"><stop offset="0" stop-color="#bb5a3f" stop-opacity=".1"/><stop offset=".34" stop-color="#bb5a3f" stop-opacity=".5"/><stop offset=".46" stop-color="#752104"/><stop offset=".64" stop-color="#834c3c"/><stop offset=".81" stop-color="#752104" stop-opacity=".4"/><stop offset="1" stop-color="#834c3c" stop-opacity=".2"/></linearGradient><linearGradient id="uuid-0571deee-5b21-4d49-8c1c-8fe1d3d3c835" x1="10.75" y1="19.26" x2="16.5" y2="13.51" gradientUnits="userSpaceOnUse"><stop offset="0" stop-color="#bb5a3f" stop-opacity=".1"/><stop offset=".28" stop-color="#bb5a3f" stop-opacity=".5"/><stop offset=".8" stop-color="#834c3c" stop-opacity=".69"/></linearGradient><linearGradient id="uuid-57593af1-636d-4ea8-b15d-f5361f7d786d" x1="23.83" y1="32.34" x2="43.99" y2="12.18" gradientUnits="userSpaceOnUse"><stop offset="0" stop-color="#bb5a3f" stop-opacity=".1"/><stop offset=".34" stop-color="#bb5a3f" stop-opacity=".5"/><stop offset=".56" stop-color="#752104"/><stop offset=".77" stop-color="#834c3c"/><stop offset=".9" stop-color="#752104" stop-opacity=".4"/><stop offset="1" stop-color="#834c3c" stop-opacity=".2"/></linearGradient><linearGradient id="uuid-5759cc1a-c54f-4ac8-8efa-8f04ed9b11c1" x1="50.7" y1="16.74" x2="55.97" y2="22.01" gradientUnits="userSpaceOnUse"><stop offset="0" stop-color="#bb5a3f" stop-opacity=".1"/><stop offset=".06" stop-color="#bb5a3f" stop-opacity=".5"/><stop offset=".15" stop-color="#752104"/><stop offset=".78" stop-color="#834c3c"/></linearGradient><linearGradient id="uuid-536eff9f-175c-4f30-8e54-642083d73e5e" x1="10.67" y1="34.81" x2="15.96" y2="29.51" gradientUnits="userSpaceOnUse"><stop offset="0" stop-color="#bb5a3f" stop-opacity=".1"/><stop offset=".34" stop-color="#bb5a3f" stop-opacity=".5"/><stop offset=".65" stop-color="#834c3c" stop-opacity=".69"/></linearGradient><linearGradient id="uuid-168e8ed2-ff33-46dc-ae24-e23ff0423b9e" x1="18.31" y1="32.25" x2="28.37" y2="22.19" gradientUnits="userSpaceOnUse"><stop offset="0" stop-color="#bb5a3f" stop-opacity=".1"/><stop offset=".34" stop-color="#bb5a3f" stop-opacity=".5"/><stop offset=".46" stop-color="#752104"/><stop offset=".73" stop-color="#834c3c"/><stop offset=".81" stop-color="#752104" stop-opacity=".4"/><stop offset=".93" stop-color="#bb5a3f" stop-opacity=".54"/><stop offset="1" stop-color="#834c3c" stop-opacity=".2"/></linearGradient><linearGradient id="uuid-26584387-ee3a-4a7a-920e-e7729caaf205" x1="30.64" y1="28.29" x2="35.01" y2="35.88" gradientUnits="userSpaceOnUse"><stop offset="0" stop-color="#bb5a3f" stop-opacity=".1"/><stop offset=".33" stop-color="#bb5a3f" stop-opacity=".5"/><stop offset=".72" stop-color="#834c3c" stop-opacity=".9"/></linearGradient><linearGradient id="uuid-798333d5-fc5f-420b-9042-73dfc2fd2120" x1="18.1" y1="42.23" x2="28.58" y2="31.76" gradientUnits="userSpaceOnUse"><stop offset="0" stop-color="#bb5a3f" stop-opacity=".1"/><stop offset=".34" stop-color="#bb5a3f" stop-opacity=".5"/><stop offset=".65" stop-color="#872c12" stop-opacity=".72"/><stop offset=".91" stop-color="#834c3c"/></linearGradient><linearGradient id="uuid-8157a99d-2032-4d42-8552-f6d37f555328" x1="41.22" y1="34.7" x2="35.6" y2="29.08" xlink:href="#uuid-26584387-ee3a-4a7a-920e-e7729caaf205"/><linearGradient id="uuid-fca8db18-2a99-4ec2-b0a7-d5f6768282fc" x1="41.19" y1="32.36" x2="50.2" y2="23.36" xlink:href="#uuid-168e8ed2-ff33-46dc-ae24-e23ff0423b9e"/><linearGradient id="uuid-71920854-5bfa-49bc-aac6-72fe8bf2f2b7" x1="50.48" y1="27.99" x2="54.89" y2="35.64" gradientUnits="userSpaceOnUse"><stop offset="0" stop-color="#bb5a3f" stop-opacity=".1"/><stop offset=".11" stop-color="#bb5a3f" stop-opacity=".5"/><stop offset=".46" stop-color="#752104"/><stop offset=".86" stop-color="#834c3c"/></linearGradient><linearGradient id="uuid-534366cd-1c60-4908-b1e9-90f11defe2d4" x1="41.23" y1="40.17" x2="50" y2="31.41" gradientUnits="userSpaceOnUse"><stop offset="0" stop-color="#bb5a3f" stop-opacity=".1"/><stop offset=".43" stop-color="#bb5a3f" stop-opacity=".5"/><stop offset=".63" stop-color="#752104"/><stop offset=".88" stop-color="#834c3c"/></linearGradient><linearGradient id="uuid-3db0e01e-6200-4da3-9bbd-e8796a45b824" x1="10.28" y1="50.98" x2="16.85" y2="44.41" gradientUnits="userSpaceOnUse"><stop offset="0" stop-color="#bb5a3f" stop-opacity=".1"/><stop offset=".34" stop-color="#bb5a3f" stop-opacity=".5"/><stop offset=".65" stop-color="#834c3c" stop-opacity=".69"/><stop offset=".86" stop-color="#752104"/></linearGradient><linearGradient id="uuid-ccee294a-85cb-4947-86dc-50acfa707397" x1="16.82" y1="57.51" x2="28.62" y2="45.71" gradientUnits="userSpaceOnUse"><stop offset="0" stop-color="#bb5a3f" stop-opacity=".1"/><stop offset=".34" stop-color="#bb5a3f" stop-opacity=".5"/><stop offset=".62" stop-color="#872c12" stop-opacity=".72"/><stop offset=".9" stop-color="#834c3c"/></linearGradient><linearGradient id="uuid-5871fb6e-951b-49f7-a3b8-c90ef7e526a7" x1="34.78" y1="43.44" x2="30.19" y2="48.03" xlink:href="#uuid-26584387-ee3a-4a7a-920e-e7729caaf205"/><linearGradient id="uuid-d040f69f-35e7-4bad-8540-15111dd813d2" x1="17.65" y1="47.71" x2="28.36" y2="37.01" gradientUnits="userSpaceOnUse"><stop offset="0" stop-color="#bb5a3f" stop-opacity=".1"/><stop offset=".09" stop-color="#834c3c"/><stop offset=".39" stop-color="#752104"/><stop offset="1" stop-color="#834c3c" stop-opacity=".6"/></linearGradient><linearGradient id="uuid-c0d1d7bb-8314-4676-9f5e-bd3562060191" x1="35.9" y1="47.29" x2="40.45" y2="42.74" xlink:href="#uuid-26584387-ee3a-4a7a-920e-e7729caaf205"/><linearGradient id="uuid-87f81f85-e3c5-458f-97eb-7ddc05956ca3" x1="54.26" y1="40.37" x2="50.6" y2="46.73" gradientUnits="userSpaceOnUse"><stop offset="0" stop-color="#bb5a3f" stop-opacity=".1"/><stop offset=".11" stop-color="#bb5a3f" stop-opacity=".5"/><stop offset=".74" stop-color="#752104"/><stop offset="1" stop-color="#834c3c"/></linearGradient><linearGradient id="uuid-c7321fbe-2060-41c4-a7e1-02a529722a0b" x1="45.53" y1="39.31" x2="45.53" y2="41.53" xlink:href="#uuid-d040f69f-35e7-4bad-8540-15111dd813d2"/><linearGradient id="uuid-67da3fd9-0379-4a93-a9e9-98ea69213207" x1="41.11" y1="52.5" x2="49.68" y2="43.93" gradientUnits="userSpaceOnUse"><stop offset="0" stop-color="#bb5a3f" stop-opacity=".1"/><stop offset=".34" stop-color="#bb5a3f" stop-opacity=".5"/><stop offset=".65" stop-color="#872c12" stop-opacity=".72"/><stop offset=".86" stop-color="#834c3c"/></linearGradient></defs><polygon points="13.26 10.27 13.92 13.16 50.8 16.63 54.9 14.9 13.26 10.27" style="fill:#faf8f5; stroke-width:0px;"/><polygon points="13.26 21.1 14 22.5 13.92 13.16 13.26 10.27 13.26 21.1" style="fill:#faf8f5; stroke-width:0px;"/><polygon points="50.8 24.08 14 22.5 13.26 21.1 54.9 23.08 50.8 24.08" style="fill:#faf8f5; stroke-width:0px;"/><polygon points="50.8 16.63 50.8 22.89 54.9 23.08 54.9 14.9 50.8 16.63" style="fill:#faf8f5; stroke-width:0px;"/><polygon points="13.26 27.05 13.26 37.39 14 36.4 14 27.55 13.26 27.05" style="fill:#faf8f5; stroke-width:0px;"/><polygon points="33.54 27.36 31.55 27.76 13.88 27.57 13.14 27.08 33.54 27.36" style="fill:#faf8f5; stroke-width:0px;"/><polygon points="31.55 35.84 33.54 36.73 33.54 27.36 31.55 27.76 31.55 35.84" style="fill:#faf8f5; stroke-width:0px;"/><polygon points="33.54 36.73 31.55 35.84 14 36.4 13.26 37.39 33.54 36.73" style="fill:#faf8f5; stroke-width:0px;"/><polygon points="36.75 27.93 39.49 27.5 39.4 36.53 36.75 35.7 36.75 27.93" style="fill:#faf8f5; stroke-width:0px;"/><polygon points="54.63 27.79 50.37 28.06 36.75 27.93 39.49 27.5 54.63 27.79" style="fill:#faf8f5; stroke-width:0px;"/><polygon points="54.47 35.88 50.37 35.19 50.37 28.06 54.63 27.79 54.47 35.88" style="fill:#faf8f5; stroke-width:0px;"/><polyline points="54.47 35.88 39.4 36.53 36.75 35.7 50.37 35.19" style="fill:#faf8f5; stroke-width:0px;"/><polygon points="13.14 53.83 13.88 50.41 14 41.55 13.26 43.32 13.14 53.83" style="fill:#faf8f5; stroke-width:0px;"/><polygon points="31.31 48.4 33.26 51.1 13.14 53.83 13.88 50.41 31.31 48.4" style="fill:#faf8f5; stroke-width:0px;"/><polygon points="33.26 41.92 33.26 51.1 31.31 48.4 31.55 40.52 33.26 41.92" style="fill:#faf8f5; stroke-width:0px;"/><polygon points="13.26 43.32 14 41.55 31.55 40.52 33.26 41.92 13.26 43.32" style="fill:#faf8f5; stroke-width:0px;"/><polygon points="36.66 40.1 36.54 47.9 39.11 50.5 39.24 41.53 36.66 40.1" style="fill:#faf8f5; stroke-width:0px;"/><polygon points="54.39 40.45 54.27 48.52 50.17 46.49 50.17 39.31 54.39 40.45" style="fill:#faf8f5; stroke-width:0px;"/><polygon points="36.66 40.1 50.17 39.31 54.39 40.45 39.24 41.53 36.66 40.1" style="fill:#faf8f5; stroke-width:0px;"/><polygon points="39.11 50.5 36.54 47.9 50.17 46.49 54.27 48.52 39.11 50.5" style="fill:#faf8f5; stroke-width:0px;"/><polygon points="13.26 10.27 13.92 13.16 50.8 16.63 54.9 14.9 13.26 10.27" style="fill:url(#uuid-79762191-32ef-4d14-a013-ccf0cb79dfa9); stroke-width:0px;"/><polygon points="13.26 21.1 14 22.5 13.92 13.16 13.26 10.27 13.26 21.1" style="fill:url(#uuid-0571deee-5b21-4d49-8c1c-8fe1d3d3c835); stroke-width:0px;"/><polygon points="50.8 24.08 14 22.5 13.26 21.1 54.9 23.08 50.8 24.08" style="fill:url(#uuid-57593af1-636d-4ea8-b15d-f5361f7d786d); stroke-width:0px;"/><polygon points="50.8 16.63 50.8 22.89 54.9 23.08 54.9 14.9 50.8 16.63" style="fill:url(#uuid-5759cc1a-c54f-4ac8-8efa-8f04ed9b11c1); stroke-width:0px;"/><polygon points="13.26 27.05 13.26 37.39 14 36.4 14 27.55 13.26 27.05" style="fill:url(#uuid-536eff9f-175c-4f30-8e54-642083d73e5e); stroke-width:0px;"/><polygon points="33.54 27.36 31.55 27.76 13.88 27.57 13.14 27.08 33.54 27.36" style="fill:url(#uuid-168e8ed2-ff33-46dc-ae24-e23ff0423b9e); stroke-width:0px;"/><polygon points="31.55 35.84 33.54 36.73 33.54 27.36 31.55 27.76 31.55 35.84" style="fill:url(#uuid-26584387-ee3a-4a7a-920e-e7729caaf205); stroke-width:0px;"/><polygon points="33.54 36.73 31.55 35.84 14 36.4 13.26 37.39 33.54 36.73" style="fill:url(#uuid-798333d5-fc5f-420b-9042-73dfc2fd2120); stroke-width:0px;"/><polygon points="36.75 27.93 39.49 27.5 39.4 36.53 36.75 35.7 36.75 27.93" style="fill:url(#uuid-8157a99d-2032-4d42-8552-f6d37f555328); stroke-width:0px;"/><polygon points="54.63 27.79 50.37 28.06 36.75 27.93 39.49 27.5 54.63 27.79" style="fill:url(#uuid-fca8db18-2a99-4ec2-b0a7-d5f6768282fc); stroke-width:0px;"/><polygon points="54.47 35.88 50.37 35.19 50.37 28.06 54.63 27.79 54.47 35.88" style="fill:url(#uuid-71920854-5bfa-49bc-aac6-72fe8bf2f2b7); stroke-width:0px;"/><polyline points="54.47 35.88 39.4 36.53 36.75 35.7 50.37 35.19" style="fill:url(#uuid-534366cd-1c60-4908-b1e9-90f11defe2d4); stroke-width:0px;"/><polygon points="13.14 53.83 13.88 50.41 14 41.55 13.26 43.32 13.14 53.83" style="fill:url(#uuid-3db0e01e-6200-4da3-9bbd-e8796a45b824); stroke-width:0px;"/><polygon points="31.31 48.4 33.26 51.1 13.14 53.83 13.88 50.41 31.31 48.4" style="fill:url(#uuid-ccee294a-85cb-4947-86dc-50acfa707397); stroke-width:0px;"/><polygon points="33.26 41.92 33.26 51.1 31.31 48.4 31.55 40.52 33.26 41.92" style="fill:url(#uuid-5871fb6e-951b-49f7-a3b8-c90ef7e526a7); stroke-width:0px;"/><polygon points="13.26 43.32 14 41.55 31.55 40.52 33.26 41.92 13.26 43.32" style="fill:url(#uuid-d040f69f-35e7-4bad-8540-15111dd813d2); stroke-width:0px;"/><polygon points="36.66 40.1 36.54 47.9 39.11 50.5 39.24 41.53 36.66 40.1" style="fill:url(#uuid-c0d1d7bb-8314-4676-9f5e-bd3562060191); stroke-width:0px;"/><polygon points="54.39 40.45 54.27 48.52 50.17 46.49 50.17 39.31 54.39 40.45" style="fill:url(#uuid-87f81f85-e3c5-458f-97eb-7ddc05956ca3); stroke-width:0px;"/><polygon points="36.66 40.1 50.17 39.31 54.39 40.45 39.24 41.53 36.66 40.1" style="fill:url(#uuid-c7321fbe-2060-41c4-a7e1-02a529722a0b); stroke-width:0px;"/><polygon points="39.11 50.5 36.54 47.9 50.17 46.49 54.27 48.52 39.11 50.5" style="fill:url(#uuid-67da3fd9-0379-4a93-a9e9-98ea69213207); stroke-width:0px;"/></svg>