<?xml version="1.0" encoding="UTF-8"?><svg id="uuid-f48464fd-41f5-45db-b0db-999c97ac1a06" xmlns="http://www.w3.org/2000/svg" width="55" height="55" xmlns:xlink="http://www.w3.org/1999/xlink" viewBox="0 0 55 55"><defs><linearGradient id="uuid-5cb385f5-ac46-4657-8fd9-6380bcf1aac2" x1="27.5" y1="50" x2="27.5" y2="5" gradientUnits="userSpaceOnUse"><stop offset=".01" stop-color="#fff" stop-opacity=".5"/><stop offset=".17" stop-color="#f9c3bf" stop-opacity=".66"/><stop offset=".34" stop-color="#f58a83" stop-opacity=".81"/><stop offset=".51" stop-color="#f16258" stop-opacity=".91"/><stop offset=".67" stop-color="#ef493e" stop-opacity=".98"/><stop offset=".8" stop-color="#ef4136"/></linearGradient><linearGradient id="uuid-783e1d12-8e92-44cf-8896-dc1ba3ade6de" x1="27.5" y1="27.17" x2="27.5" y2="52.17" gradientUnits="userSpaceOnUse"><stop offset=".01" stop-color="#fff" stop-opacity=".3"/><stop offset=".08" stop-color="#e7eaf4" stop-opacity=".38"/><stop offset=".34" stop-color="#9ba7d0" stop-opacity=".65"/><stop offset=".58" stop-color="#6477b7" stop-opacity=".84"/><stop offset=".81" stop-color="#435aa8" stop-opacity=".96"/><stop offset="1" stop-color="#3850a3"/></linearGradient></defs><path d="m27.5,50c-12.41,0-22.5-10.09-22.5-22.5S15.09,5,27.5,5s22.5,10.09,22.5,22.5-10.09,22.5-22.5,22.5Zm0-39.44c-9.1,0-16.5,7.4-16.5,16.5s7.4,16.5,16.5,16.5,16.5-7.4,16.5-16.5-7.4-16.5-16.5-16.5Z" style="fill:url(#uuid-5cb385f5-ac46-4657-8fd9-6380bcf1aac2); stroke-width:0px;"/><path d="m50,52.17H5v-5.14h45v5.14Zm0-10.13H5v-5.14h45v5.14Zm0-9.73H5v-5.14h45v5.14Z" style="fill:url(#uuid-783e1d12-8e92-44cf-8896-dc1ba3ade6de); stroke-width:0px;"/></svg>