<?xml version="1.0" encoding="utf-8"?>
<!-- Generator: Adobe Illustrator 28.0.0, SVG Export Plug-In . SVG Version: 6.00 Build 0)  -->
<svg version="1.1" id="svg2" xmlns="http://www.w3.org/2000/svg" xmlns:xlink="http://www.w3.org/1999/xlink" x="0px" y="0px"
	 viewBox="0 0 64 64" style="enable-background:new 0 0 64 64;" xml:space="preserve">
<style type="text/css">
	.st0{fill:#0EAF05;}
</style>
<path class="st0" d="M43.1,39.2C32.4,42.2,29.9,44.7,27,55.4c0,0.2-0.3,0.2-0.3,0c-2.9-10.7-5.4-13.2-16.2-16.2
	c-0.2,0-0.2-0.3,0-0.3c10.7-2.9,13.2-5.4,16.2-16.2c0-0.2,0.3-0.2,0.3,0c2.9,10.7,5.4,13.2,16.2,16.2C43.3,39,43.3,39.2,43.1,39.2z"
	/>
<path class="st0" d="M44.5,10.5c-4.6,1.2-5.7,2.3-6.9,6.9c0,0.1-0.1,0.1-0.1,0c-1.2-4.6-2.3-5.7-6.9-6.9c-0.1,0-0.1-0.1,0-0.1
	c4.6-1.2,5.7-2.3,6.9-6.9c0-0.1,0.1-0.1,0.1,0c1.2,4.6,2.3,5.7,6.9,6.9C44.5,10.3,44.5,10.4,44.5,10.5z"/>
<path class="st0" d="M49.3,39.1c-0.2,0-0.3-0.1-0.4-0.3c-0.9-3.4-1.9-5.9-3.5-7.6c-1.7-1.7-4.2-2.6-7.6-3.5c-0.2,0-0.3-0.2-0.3-0.4
	c0-0.2,0.1-0.3,0.3-0.4c3.4-0.9,5.9-1.9,7.6-3.5c1.7-1.7,2.6-4.2,3.5-7.6c0-0.2,0.2-0.3,0.4-0.3s0.3,0.1,0.4,0.3
	c0.9,3.4,1.9,5.9,3.5,7.6c1.7,1.7,4.2,2.6,7.6,3.5c0.2,0,0.3,0.2,0.3,0.4c0,0.2-0.1,0.3-0.3,0.4c-3.4,0.9-5.9,1.9-7.6,3.5
	c-1.7,1.7-2.6,4.2-3.5,7.6C49.6,39,49.5,39.1,49.3,39.1z M40.3,27.3c2.7,0.8,4.6,1.5,6,2.9c1.4,1.4,2.2,3.4,2.9,6
	c0.8-2.7,1.5-4.6,2.9-6c1.4-1.4,3.4-2.2,6-2.9c-2.7-0.8-4.6-1.5-6-2.9s-2.2-3.4-2.9-6c-0.8,2.7-1.5,4.6-2.9,6
	C45,25.7,43,26.5,40.3,27.3z M60.8,27.4L60.8,27.4L60.8,27.4z"/>
<path class="st0" d="M14.8,57.5c-0.1,0-0.1-0.1-0.2-0.1c-0.4-1.6-0.8-2.7-1.6-3.4c-0.8-0.8-1.9-1.2-3.4-1.6c-0.1,0-0.1-0.1-0.1-0.2
	c0-0.1,0.1-0.1,0.1-0.2c1.6-0.4,2.7-0.8,3.4-1.6c0.8-0.8,1.2-1.9,1.6-3.4c0-0.1,0.1-0.1,0.2-0.1s0.1,0.1,0.2,0.1
	c0.4,1.6,0.8,2.7,1.6,3.4c0.8,0.8,1.9,1.2,3.4,1.6c0.1,0,0.1,0.1,0.1,0.2c0,0.1-0.1,0.1-0.1,0.2c-1.6,0.4-2.7,0.8-3.4,1.6
	c-0.8,0.8-1.2,1.9-1.6,3.4C15,57.4,14.9,57.5,14.8,57.5z M11.7,52.1c0.9,0.3,1.6,0.5,2.1,1c0.5,0.5,0.8,1.2,1,2.1
	c0.3-0.9,0.5-1.6,1-2.1c0.5-0.5,1.2-0.8,2.1-1c-0.9-0.3-1.6-0.5-2.1-1c-0.5-0.5-0.8-1.2-1-2.1c-0.3,0.9-0.5,1.6-1,2.1
	C13.3,51.6,12.6,51.9,11.7,52.1z M20,52.2L20,52.2L20,52.2z"/>
</svg>
