<?xml version="1.0" encoding="utf-8"?>
<!-- Generator: Adobe Illustrator 28.0.0, SVG Export Plug-In . SVG Version: 6.00 Build 0)  -->
<svg version="1.1" id="svg2" xmlns="http://www.w3.org/2000/svg" xmlns:xlink="http://www.w3.org/1999/xlink" x="0px" y="0px"
	 viewBox="0 0 64 64" style="enable-background:new 0 0 64 64;" xml:space="preserve">
<style type="text/css">
	.st0{fill-rule:evenodd;clip-rule:evenodd;fill:#FFFFFF;}
	.st1{fill:#CC9900;}
</style>
<path class="st0" d="M64,32c0,17.7-14.3,32-32,32S0,49.7,0,32S14.3,0,32,0S64,14.3,64,32z"/>
<path class="st1" d="M31.9,0C23.1,0,15.6,3.1,9.5,9.3C6.4,12.4,4,15.9,2.4,19.8S0,27.8,0,32c0,4.3,0.8,8.3,2.4,12.2s3.9,7.3,7,10.4
	c3.1,3,6.5,5.4,10.4,7S27.7,64,32,64s8.3-0.8,12.3-2.5c4-1.6,7.5-4,10.6-7.1c3-2.9,5.3-6.3,6.8-10.1c1.6-3.8,2.3-8,2.3-12.4
	c0-4.3-0.8-8.4-2.3-12.3c-1.6-3.9-3.8-7.3-6.9-10.3C48.5,3.1,40.9,0,31.9,0L31.9,0z M32.1,5.8c7.2,0,13.4,2.6,18.6,7.7
	c2.5,2.5,4.4,5.3,5.7,8.5s1.9,6.5,1.9,10.1c0,7.3-2.5,13.5-7.5,18.3c-2.6,2.5-5.5,4.4-8.7,5.8c-3.2,1.3-6.5,2-9.9,2
	c-3.1,0-6.8-0.7-9.9-1.9c-3.2-1.3-6-3.2-8.5-5.7S9.4,45.3,8,42.1c-1.3-3.2-2-6.5-2-9.9c0-3.5,0.7-6.8,2-10c1.4-3.2,3.3-6.1,5.8-8.6
	C18.6,8.4,24.8,5.8,32.1,5.8z"/>
<g>
	<path class="st1" d="M24,48.6c0-3.2,2.5-6,5.8-6c2.4,0,4.1,1.8,4.1,4.4c0,3.2-2.5,5.9-5.8,5.9C25.7,52.9,24,51.1,24,48.6z
		 M31.4,18.8l1.1-6.9h6.7l-1.3,6.9L33,37.5h-4.3L31.4,18.8z"/>
</g>
</svg>
